<svg width="24" height="24" viewBox="0 0 24 24" fill="none" xmlns="http://www.w3.org/2000/svg">
<g id="flowbite:cube-solid">
<path id="Vector" d="M9.982 4.50597C10.6028 4.17403 11.296 4.00037 12 4.00037C12.704 4.00037 13.3972 4.17403 14.018 4.50597L17.982 6.64797C18.345 6.84397 18.668 7.08797 18.943 7.36997L12.014 10.972L5.207 7.22497C5.45226 6.99962 5.7247 6.80579 6.018 6.64797L9.982 4.50597ZM4.167 8.84397C4.0573 9.19145 4.00099 9.55358 4 9.91797V14.201C4 15.551 4.77 16.798 6.018 17.472L9.982 19.614C10.302 19.787 10.642 19.916 10.991 20V12.6L4.167 8.84397ZM13.009 20C13.3609 19.9154 13.7004 19.7856 14.019 19.614L17.982 17.472C19.23 16.798 20 15.551 20 14.202V9.91697C19.9993 9.6163 19.9627 9.32297 19.89 9.03697L13.009 12.615V20Z" fill="white"/>
</g>
</svg>
