<svg width="18" height="16" viewBox="0 0 18 16" fill="none" xmlns="http://www.w3.org/2000/svg">
<path id="Vector" d="M15.7725 6.39151L15.3893 5.35658L14.7099 3.52132C14.1266 1.94609 12.7353 0.928467 11.1648 0.928467H6.83522C5.26499 0.928467 3.8734 1.94609 3.29011 3.52132L2.61068 5.35658L2.22749 6.39151C1.40522 6.72925 0.818176 7.58224 0.818176 8.58918V10.357C0.818176 10.9507 1.02818 11.4866 1.36363 11.9013V13.8928C1.36363 14.5435 1.85215 15.0713 2.45454 15.0713H3.54545C4.14784 15.0713 4.63636 14.5435 4.63636 13.8928V12.7142H13.3636V13.8928C13.3636 14.5435 13.8522 15.0713 14.4545 15.0713H15.5454C16.1478 15.0713 16.6364 14.5435 16.6364 13.8928V11.9013C16.9718 11.487 17.1818 10.9511 17.1818 10.357V8.58918C17.1818 7.58224 16.5948 6.72925 15.7725 6.39151ZM5.31579 4.39678C5.56431 3.72573 6.16602 3.28561 6.83522 3.28561H11.1648C11.834 3.28561 12.4357 3.72573 12.6842 4.39678L13.3636 6.23204H4.63636L5.31579 4.39678ZM3.54545 10.3497C2.8909 10.3497 2.45454 9.87972 2.45454 9.17478C2.45454 8.46985 2.8909 7.9999 3.54545 7.9999C4.19999 7.9999 5.18181 9.0573 5.18181 9.76223C5.18181 10.4672 4.19999 10.3497 3.54545 10.3497ZM14.4545 10.3497C13.8 10.3497 12.8182 10.4672 12.8182 9.76223C12.8182 9.0573 13.8 7.9999 14.4545 7.9999C15.1091 7.9999 15.5454 8.46985 15.5454 9.17478C15.5454 9.87972 15.1091 10.3497 14.4545 10.3497Z" fill="white"/>
</svg>
