<svg width="48" height="48" viewBox="0 0 48 48" fill="none" xmlns="http://www.w3.org/2000/svg">
    <path
        d="M43.9985 9.04029C43.9985 8.82812 43.9143 8.62463 43.7642 8.4746C43.6142 8.32457 43.4107 8.24029 43.1985 8.24029H37.9249V6.29629C37.9249 5.41309 37.2065 4.69629 36.3249 4.69629H33.7329C32.8513 4.69629 32.1329 5.41309 32.1329 6.29629V8.24029H15.8713V6.29629C15.8713 5.41309 15.1537 4.69629 14.2713 4.69629H11.6801C10.7985 4.69629 10.0801 5.41309 10.0801 6.29629V8.24029H4.79854C4.58636 8.24029 4.38288 8.32457 4.23285 8.4746C4.08282 8.62463 3.99854 8.82812 3.99854 9.04029V42.5043C3.99854 42.7165 4.08282 42.9199 4.23285 43.07C4.38288 43.22 4.58636 43.3043 4.79854 43.3043H43.1985C43.4107 43.3043 43.6142 43.22 43.7642 43.07C43.9143 42.9199 43.9985 42.7165 43.9985 42.5043V17.3971C43.9985 17.3899 44.0017 17.3843 44.0017 17.3779C44.0017 17.3715 43.9985 17.3651 43.9985 17.3579V9.04029ZM33.7337 9.04509V6.29549L36.3249 6.29469V11.7891H33.7329L33.7337 9.04509ZM11.6793 6.29549H14.2713V9.03709L14.2697 9.04109L14.2705 9.04509V11.7891H11.6801V6.29629L11.6793 6.29549ZM42.3985 41.7051H5.59854V18.1763H42.3985V41.7051ZM42.3985 16.5771H5.59854V9.84029H10.0793V11.7883C10.0793 12.6707 10.7977 13.3883 11.6793 13.3883H14.2713C15.1529 13.3883 15.8713 12.6707 15.8713 11.7883V9.84029H32.1337V11.7883C32.1337 12.6707 32.8513 13.3883 33.7337 13.3883H36.3249C37.2065 13.3883 37.9249 12.6707 37.9249 11.7883V9.84029H42.3985V16.5763V16.5771Z"
    />
    <path
        d="M9.55195 23.766H12.576C12.7881 23.766 12.9916 23.6817 13.1416 23.5317C13.2917 23.3817 13.376 23.1782 13.376 22.966C13.376 22.7538 13.2917 22.5504 13.1416 22.4003C12.9916 22.2503 12.7881 22.166 12.576 22.166H9.55195C9.33978 22.166 9.1363 22.2503 8.98627 22.4003C8.83624 22.5504 8.75195 22.7538 8.75195 22.966C8.75195 23.1782 8.83624 23.3817 8.98627 23.5317C9.1363 23.6817 9.33978 23.766 9.55195 23.766ZM18.176 23.766H21.2C21.4121 23.766 21.6156 23.6817 21.7656 23.5317C21.9157 23.3817 22 23.1782 22 22.966C22 22.7538 21.9157 22.5504 21.7656 22.4003C21.6156 22.2503 21.4121 22.166 21.2 22.166H18.176C17.9638 22.166 17.7603 22.2503 17.6103 22.4003C17.4602 22.5504 17.376 22.7538 17.376 22.966C17.376 23.1782 17.4602 23.3817 17.6103 23.5317C17.7603 23.6817 17.9638 23.766 18.176 23.766ZM26.8 23.766H29.824C30.0361 23.766 30.2396 23.6817 30.3896 23.5317C30.5397 23.3817 30.624 23.1782 30.624 22.966C30.624 22.7538 30.5397 22.5504 30.3896 22.4003C30.2396 22.2503 30.0361 22.166 29.824 22.166H26.8C26.5878 22.166 26.3843 22.2503 26.2343 22.4003C26.0842 22.5504 26 22.7538 26 22.966C26 23.1782 26.0842 23.3817 26.2343 23.5317C26.3843 23.6817 26.5878 23.766 26.8 23.766ZM35.424 23.766H38.448C38.6601 23.766 38.8636 23.6817 39.0136 23.5317C39.1637 23.3817 39.248 23.1782 39.248 22.966C39.248 22.7538 39.1637 22.5504 39.0136 22.4003C38.8636 22.2503 38.6601 22.166 38.448 22.166H35.424C35.2118 22.166 35.0083 22.2503 34.8583 22.4003C34.7082 22.5504 34.624 22.7538 34.624 22.966C34.624 23.1782 34.7082 23.3817 34.8583 23.5317C35.0083 23.6817 35.2118 23.766 35.424 23.766ZM9.55195 30.7412H12.576C12.7881 30.7412 12.9916 30.6569 13.1416 30.5069C13.2917 30.3569 13.376 30.1534 13.376 29.9412C13.376 29.729 13.2917 29.5256 13.1416 29.3755C12.9916 29.2255 12.7881 29.1412 12.576 29.1412H9.55195C9.33978 29.1412 9.1363 29.2255 8.98627 29.3755C8.83624 29.5256 8.75195 29.729 8.75195 29.9412C8.75195 30.1534 8.83624 30.3569 8.98627 30.5069C9.1363 30.6569 9.33978 30.7412 9.55195 30.7412ZM18.176 30.7412H21.2C21.4121 30.7412 21.6156 30.6569 21.7656 30.5069C21.9157 30.3569 22 30.1534 22 29.9412C22 29.729 21.9157 29.5256 21.7656 29.3755C21.6156 29.2255 21.4121 29.1412 21.2 29.1412H18.176C17.9638 29.1412 17.7603 29.2255 17.6103 29.3755C17.4602 29.5256 17.376 29.729 17.376 29.9412C17.376 30.1534 17.4602 30.3569 17.6103 30.5069C17.7603 30.6569 17.9638 30.7412 18.176 30.7412ZM26.8 30.7412H29.824C30.0361 30.7412 30.2396 30.6569 30.3896 30.5069C30.5397 30.3569 30.624 30.1534 30.624 29.9412C30.624 29.729 30.5397 29.5256 30.3896 29.3755C30.2396 29.2255 30.0361 29.1412 29.824 29.1412H26.8C26.5878 29.1412 26.3843 29.2255 26.2343 29.3755C26.0842 29.5256 26 29.729 26 29.9412C26 30.1534 26.0842 30.3569 26.2343 30.5069C26.3843 30.6569 26.5878 30.7412 26.8 30.7412ZM35.424 30.7412H38.448C38.6601 30.7412 38.8636 30.6569 39.0136 30.5069C39.1637 30.3569 39.248 30.1534 39.248 29.9412C39.248 29.729 39.1637 29.5256 39.0136 29.3755C38.8636 29.2255 38.6601 29.1412 38.448 29.1412H35.424C35.2118 29.1412 35.0083 29.2255 34.8583 29.3755C34.7082 29.5256 34.624 29.729 34.624 29.9412C34.624 30.1534 34.7082 30.3569 34.8583 30.5069C35.0083 30.6569 35.2118 30.7412 35.424 30.7412ZM9.55195 37.7164H12.576C12.7881 37.7164 12.9916 37.6321 13.1416 37.4821C13.2917 37.3321 13.376 37.1286 13.376 36.9164C13.376 36.7042 13.2917 36.5008 13.1416 36.3507C12.9916 36.2007 12.7881 36.1164 12.576 36.1164H9.55195C9.33978 36.1164 9.1363 36.2007 8.98627 36.3507C8.83624 36.5008 8.75195 36.7042 8.75195 36.9164C8.75195 37.1286 8.83624 37.3321 8.98627 37.4821C9.1363 37.6321 9.33978 37.7164 9.55195 37.7164ZM18.176 37.7164H21.2C21.4121 37.7164 21.6156 37.6321 21.7656 37.4821C21.9157 37.3321 22 37.1286 22 36.9164C22 36.7042 21.9157 36.5008 21.7656 36.3507C21.6156 36.2007 21.4121 36.1164 21.2 36.1164H18.176C17.9638 36.1164 17.7603 36.2007 17.6103 36.3507C17.4602 36.5008 17.376 36.7042 17.376 36.9164C17.376 37.1286 17.4602 37.3321 17.6103 37.4821C17.7603 37.6321 17.9638 37.7164 18.176 37.7164ZM26.8 37.7164H29.824C30.0361 37.7164 30.2396 37.6321 30.3896 37.4821C30.5397 37.3321 30.624 37.1286 30.624 36.9164C30.624 36.7042 30.5397 36.5008 30.3896 36.3507C30.2396 36.2007 30.0361 36.1164 29.824 36.1164H26.8C26.5878 36.1164 26.3843 36.2007 26.2343 36.3507C26.0842 36.5008 26 36.7042 26 36.9164C26 37.1286 26.0842 37.3321 26.2343 37.4821C26.3843 37.6321 26.5878 37.7164 26.8 37.7164ZM35.424 37.7164H38.448C38.6601 37.7164 38.8636 37.6321 39.0136 37.4821C39.1637 37.3321 39.248 37.1286 39.248 36.9164C39.248 36.7042 39.1637 36.5008 39.0136 36.3507C38.8636 36.2007 38.6601 36.1164 38.448 36.1164H35.424C35.2118 36.1164 35.0083 36.2007 34.8583 36.3507C34.7082 36.5008 34.624 36.7042 34.624 36.9164C34.624 37.1286 34.7082 37.3321 34.8583 37.4821C35.0083 37.6321 35.2118 37.7164 35.424 37.7164Z"
    />
</svg>