<svg width="50" height="50" viewBox="0 0 50 50" fill="none" xmlns="http://www.w3.org/2000/svg">
    <path
        d="M25 0C20.0555 0 15.222 1.46622 11.1108 4.21326C6.99953 6.96029 3.79521 10.8648 1.90302 15.4329C0.0108324 20.0011 -0.484251 25.0277 0.480379 29.8773C1.44501 34.7268 3.82603 39.1814 7.32234 42.6777C10.8187 46.174 15.2732 48.555 20.1228 49.5196C24.9723 50.4843 29.9989 49.9892 34.5671 48.097C39.1353 46.2048 43.0397 43.0005 45.7868 38.8892C48.5338 34.778 50 29.9445 50 25C49.9925 18.3719 47.3562 12.0174 42.6694 7.33061C37.9826 2.64383 31.6281 0.00749912 25 0ZM16.185 46.5992C11.896 44.8444 8.22566 41.8539 5.64049 38.0079C3.05533 34.1619 1.67211 29.6341 1.66668 25C1.66668 24.9092 1.67251 24.8192 1.67334 24.7283L4.21001 23.7133C4.18256 24.1417 4.16811 24.5708 4.16668 25C4.17186 29.17 5.42656 33.2427 7.76888 36.6927C10.1112 40.1427 13.4337 42.8116 17.3075 44.355L16.185 46.5992ZM19.1667 35H30.8333C31.938 34.9987 32.9971 34.5593 33.7782 33.7781C34.5593 32.997 34.9987 31.938 35 30.8333V8.65583C38.0472 10.5181 40.5132 13.195 42.1196 16.3845C43.726 19.5739 44.4089 23.1489 44.0912 26.7059C43.7735 30.2629 42.4678 33.6603 40.3216 36.5146C38.1753 39.3689 35.274 41.5664 31.945 42.8592L31.2058 41.3817C30.9993 40.9656 30.6805 40.6156 30.2853 40.3714C29.8902 40.1272 29.4345 39.9986 28.97 40H21.03C20.5655 39.9986 20.1099 40.1272 19.7147 40.3714C19.3196 40.6156 19.0007 40.9656 18.7942 41.3817L18.055 42.8592C14.726 41.5664 11.8247 39.3689 9.67846 36.5146C7.53222 33.6603 6.22657 30.2629 5.90886 26.7059C5.59115 23.1489 6.27404 19.5739 7.88046 16.3845C9.48687 13.195 11.9528 10.5181 15 8.65583V30.8333C15.0013 31.938 15.4407 32.997 16.2219 33.7781C17.003 34.5593 18.062 34.9987 19.1667 35ZM33.3334 12.5V30.8333C33.3334 31.4964 33.07 32.1323 32.6011 32.6011C32.1323 33.0699 31.4964 33.3333 30.8333 33.3333H19.1667C18.5036 33.3333 17.8678 33.0699 17.3989 32.6011C16.9301 32.1323 16.6667 31.4964 16.6667 30.8333V12.5H33.3334ZM16.6667 10.8333V7.7425L16.6867 7.73167C16.9833 7.58833 17.2842 7.45417 17.5858 7.32667C17.7342 7.26417 17.885 7.2075 18.0358 7.14833C18.1867 7.08917 18.3442 7.02667 18.5 6.97C18.6867 6.9025 18.8758 6.84 19.0642 6.77833C19.185 6.73917 19.305 6.695 19.4267 6.6625C19.6308 6.6 19.8367 6.5425 20.0433 6.48667C20.1533 6.4575 20.2633 6.42833 20.3767 6.40333C20.7004 6.32224 21.0264 6.25027 21.3542 6.1875C21.565 6.14667 21.7758 6.10417 21.9883 6.07417C22.1183 6.05333 22.2492 6.03667 22.38 6.01917C22.5767 5.99167 22.7733 5.965 22.9717 5.94333C23.1475 5.925 23.325 5.91333 23.5017 5.89917C23.6592 5.8875 23.8158 5.87167 23.9742 5.86333C24.6586 5.82395 25.3447 5.8234 26.0292 5.86167C26.1875 5.87 26.3442 5.88583 26.5025 5.8975C26.6792 5.91167 26.8558 5.92333 27.0317 5.94167C27.23 5.96333 27.4267 5.99 27.6233 6.0175C27.7542 6.035 27.885 6.05167 28.015 6.0725C28.2275 6.10583 28.4384 6.145 28.6492 6.18583C28.9773 6.24701 29.3033 6.31899 29.6267 6.40167L29.96 6.485C30.1667 6.54083 30.3725 6.59833 30.5767 6.66083C30.6975 6.6975 30.8183 6.7375 30.9383 6.77667C31.1275 6.83833 31.3167 6.90083 31.5034 6.96833C31.6592 7.025 31.8125 7.08583 31.9675 7.14667C32.1225 7.2075 32.2692 7.26167 32.4175 7.325C32.7192 7.4525 33.02 7.58667 33.3167 7.73L33.3367 7.74083V10.8333H16.6667ZM30.3517 43.4008C26.857 44.4218 23.1431 44.4218 19.6483 43.4008L20.285 42.1275C20.3536 41.9887 20.4598 41.8719 20.5915 41.7904C20.7232 41.7089 20.8752 41.6661 21.03 41.6667H28.97C29.1249 41.6661 29.2768 41.7089 29.4085 41.7904C29.5402 41.8719 29.6464 41.9887 29.715 42.1275L30.3517 43.4008ZM25 48.3333C22.5407 48.3338 20.0969 47.9437 17.76 47.1775L18.89 44.9167C22.8718 46.1378 27.1282 46.1378 31.11 44.9167L32.24 47.1767C29.9031 47.9431 27.4594 48.3335 25 48.3333ZM48.3334 25C48.3279 29.6341 46.9447 34.1619 44.3595 38.0079C41.7744 41.8539 38.104 44.8444 33.815 46.5992L32.6925 44.355C36.5664 42.8116 39.8888 40.1427 42.2311 36.6927C44.5735 33.2427 45.8282 29.17 45.8334 25C45.8334 24.5675 45.8159 24.1392 45.79 23.7133L48.3267 24.7283C48.3275 24.8192 48.3334 24.9092 48.3334 25ZM45.5942 21.84C45.0909 18.6008 43.8322 15.5256 41.9201 12.863C40.008 10.2004 37.4961 8.02521 34.5875 6.51333C34.5742 6.505 34.5634 6.49333 34.5492 6.48583C34.4734 6.44667 34.3967 6.41417 34.3209 6.37583C33.971 6.20097 33.6167 6.03509 33.2584 5.87833C33.0466 5.78789 32.8335 5.70065 32.6192 5.61667C32.4725 5.55833 32.3258 5.4975 32.1783 5.4425C31.955 5.35917 31.7284 5.28667 31.5025 5.2125C31.1836 5.10639 30.8628 5.00917 30.54 4.92083C30.4008 4.8825 30.2633 4.8375 30.1233 4.80667C29.905 4.75083 29.685 4.7025 29.465 4.65417C29.1056 4.57494 28.7441 4.50547 28.3808 4.44583C28.209 4.41771 28.0368 4.39215 27.8642 4.36917C27.6701 4.34171 27.4756 4.31671 27.2808 4.29417C27.0631 4.27166 26.845 4.25249 26.6267 4.23667C26.4692 4.22417 26.3125 4.20917 26.155 4.2C25.7733 4.17917 25.3883 4.16667 25 4.16667C24.6117 4.16667 24.2267 4.17917 23.8433 4.2C23.6858 4.20917 23.5292 4.22417 23.3717 4.23667C23.1533 4.25333 22.935 4.27083 22.7175 4.29417C22.5217 4.31583 22.3275 4.34167 22.1342 4.36917C21.748 4.42025 21.3637 4.4839 20.9817 4.56C20.8317 4.58917 20.6825 4.62167 20.5333 4.65417C20.3133 4.7025 20.0933 4.75083 19.875 4.80667C19.7358 4.84167 19.5983 4.8825 19.4583 4.92083C19.1367 5.00972 18.817 5.10639 18.4992 5.21083C18.2717 5.28583 18.0442 5.36 17.82 5.4425C17.6725 5.4975 17.5267 5.55833 17.38 5.61667C17.165 5.7 16.9508 5.78333 16.74 5.87833C16.6008 5.93917 16.4633 6.0025 16.3233 6.06583C16.1067 6.16583 15.8908 6.26917 15.6775 6.37583C15.6017 6.41417 15.525 6.44667 15.4492 6.48583C15.435 6.49333 15.4242 6.505 15.4108 6.51333C12.5026 8.02541 9.99099 10.2007 8.07918 12.8633C6.16737 15.5259 4.909 18.601 4.40585 21.84L1.76584 22.8958C2.29083 17.0964 4.96574 11.7029 9.26496 7.77528C13.5642 3.84766 19.1768 1.66988 25 1.66988C30.8232 1.66988 36.4359 3.84766 40.7351 7.77528C45.0343 11.7029 47.7092 17.0964 48.2342 22.8958L45.5942 21.84Z" />
    <path
        d="M21.6663 30.8333H28.333C28.554 30.8333 28.766 30.7455 28.9223 30.5893C29.0785 30.433 29.1663 30.221 29.1663 30V25C29.1663 24.779 29.0785 24.567 28.9223 24.4107C28.766 24.2545 28.554 24.1667 28.333 24.1667H21.6663C21.4453 24.1667 21.2334 24.2545 21.0771 24.4107C20.9208 24.567 20.833 24.779 20.833 25V30C20.833 30.221 20.9208 30.433 21.0771 30.5893C21.2334 30.7455 21.4453 30.8333 21.6663 30.8333ZM22.4997 25.8333H27.4997V29.1667H22.4997V25.8333ZM24.9997 21.6667C25.6589 21.6667 26.3034 21.4712 26.8516 21.1049C27.3997 20.7386 27.827 20.218 28.0793 19.6089C28.3316 18.9999 28.3976 18.3296 28.269 17.683C28.1403 17.0364 27.8229 16.4425 27.3567 15.9763C26.8905 15.5101 26.2966 15.1927 25.65 15.064C25.0034 14.9354 24.3332 15.0014 23.7241 15.2537C23.115 15.506 22.5944 15.9333 22.2281 16.4814C21.8618 17.0296 21.6663 17.6741 21.6663 18.3333C21.6663 19.2174 22.0175 20.0652 22.6427 20.6904C23.2678 21.3155 24.1156 21.6667 24.9997 21.6667ZM24.9997 16.6667C25.3293 16.6667 25.6515 16.7644 25.9256 16.9475C26.1997 17.1307 26.4133 17.391 26.5395 17.6955C26.6656 18.0001 26.6986 18.3352 26.6343 18.6585C26.57 18.9818 26.4113 19.2788 26.1782 19.5118C25.9451 19.7449 25.6481 19.9037 25.3248 19.968C25.0015 20.0323 24.6664 19.9993 24.3619 19.8731C24.0573 19.747 23.797 19.5334 23.6139 19.2593C23.4308 18.9852 23.333 18.663 23.333 18.3333C23.333 17.8913 23.5086 17.4674 23.8212 17.1548C24.1337 16.8423 24.5576 16.6667 24.9997 16.6667ZM18.333 17.5H19.9997V19.1667H18.333V17.5ZM29.9997 17.5H31.6663V19.1667H29.9997V17.5ZM22.4997 7.5H27.4997V9.16667H22.4997V7.5Z"
        />
</svg>