<svg width="42" height="46" viewBox="0 0 42 46" fill="none" xmlns="http://www.w3.org/2000/svg">

    <path fill-rule="evenodd" clip-rule="evenodd"
        d="M32.7829 16.1938C32.3283 16.5507 31.7384 16.8363 31.0271 17.0679C31.0588 17.3902 31.0747 17.7166 31.0747 18.0473C31.0742 19.4039 30.7981 20.7462 30.2633 21.993C29.7285 23.2397 28.946 24.3648 27.9634 25.3001C26.9807 26.2355 25.8184 26.9614 24.5468 27.4341C23.2752 27.9068 21.9208 28.1163 20.5658 28.0499C19.2108 27.9835 17.8835 27.6426 16.6641 27.0479C15.4448 26.4532 14.359 25.6171 13.4725 24.5902C12.586 23.5633 11.9173 22.3671 11.5069 21.0741C11.0965 19.781 10.9529 18.4181 11.085 17.0679C10.3737 16.8363 9.78384 16.5507 9.3305 16.1938C8.74191 15.7305 8.34742 15.1118 8.30108 14.3679C8.25725 13.6779 8.53026 13.0918 8.80327 12.6785C9.07266 12.287 9.3927 11.9328 9.75504 11.6253C9.93204 11.4717 10.1015 11.3352 10.2635 11.2158C10.2151 10.9578 10.1641 10.6489 10.1107 10.2891C9.88998 8.71037 9.78117 7.11803 9.7851 5.52397C9.7851 5.13073 9.95291 4.83769 10.0306 4.71371C10.1282 4.55717 10.2434 4.42317 10.3486 4.31547C10.5578 4.09631 10.8283 3.8734 11.1251 3.65925C11.7262 3.22344 12.5527 2.73378 13.5346 2.27542C15.492 1.36122 18.1807 0.514648 21.0561 0.514648C23.9314 0.514648 26.6202 1.36248 28.5776 2.27542C29.4217 2.6613 30.2283 3.12455 30.987 3.65925C31.2838 3.8734 31.5543 4.09756 31.7635 4.31547C31.8687 4.42317 31.9839 4.55717 32.0816 4.71371C32.1592 4.83769 32.327 5.13073 32.327 5.52397C32.327 7.5302 32.1642 9.15572 32.0014 10.2891C31.948 10.6498 31.8971 10.9587 31.8486 11.2158C32.0089 11.3348 32.183 11.4713 32.3583 11.6253C32.6714 11.8996 33.0296 12.2565 33.3089 12.6785C33.5831 13.0918 33.8549 13.6779 33.8123 14.3692C33.766 15.1118 33.3715 15.7305 32.7829 16.1938ZM12.2923 5.92221C12.311 7.61035 12.4513 8.97539 12.5903 9.92966C12.6237 10.1551 12.6554 10.3563 12.6855 10.5333H29.4266C29.4575 10.3555 29.4892 10.1542 29.5218 9.92966C29.6596 8.97539 29.8011 7.61035 29.8199 5.92221C29.7223 5.83991 29.6216 5.76137 29.5181 5.68677C29.066 5.35991 28.3797 4.94789 27.5181 4.5459C25.7861 3.73689 23.4655 3.01931 21.0561 3.01931C18.6466 3.01931 16.326 3.73689 14.594 4.5459C13.7324 4.94789 13.0462 5.35991 12.5953 5.68552C12.4913 5.76091 12.3902 5.84029 12.2923 5.92346M12.0243 13.0379L12.0205 13.0404C11.8043 13.1844 11.5973 13.3417 11.4006 13.5113C11.1777 13.7067 10.9999 13.897 10.8922 14.0623C10.8671 14.0999 10.8441 14.1388 10.8233 14.1788L10.8784 14.2252C11.0662 14.3729 11.4695 14.5896 12.2559 14.8037C12.4112 14.8455 12.5778 14.8864 12.7556 14.9265L12.7669 14.929C13.3956 15.068 14.1695 15.1919 15.1125 15.2896C16.4487 15.4286 18.1306 15.5201 20.232 15.5401L21.0561 15.5426C25.0973 15.5426 27.7109 15.2909 29.3465 14.929L29.3565 14.9265C29.5352 14.8872 29.7021 14.8463 29.8574 14.8037C30.6426 14.5908 31.0471 14.3729 31.2337 14.2252L31.2888 14.1788C31.2684 14.1388 31.2458 14.0999 31.2212 14.0623C31.075 13.8581 30.9038 13.673 30.7115 13.5113C30.5153 13.3417 30.3086 13.1844 30.0929 13.0404L30.0879 13.0379H12.0243ZM20.7154 18.0473C24.0241 18.0473 26.5889 17.8719 28.555 17.5664C28.565 17.725 28.57 17.8853 28.57 18.0473C28.5692 19.0501 28.3675 20.0425 27.9771 20.9662C27.5867 21.8899 27.0153 22.726 26.2966 23.4254C25.578 24.1248 24.7266 24.6733 23.7927 25.0385C22.8588 25.4037 21.8612 25.5783 20.8588 25.552C19.8563 25.5257 18.8693 25.2989 17.9558 24.8852C17.0423 24.4714 16.2209 23.879 15.54 23.1429C14.8591 22.4067 14.3324 21.5417 13.991 20.5988C13.6496 19.6559 13.5003 18.6542 13.5521 17.6528C15.3843 17.9057 17.7324 18.0473 20.7154 18.0473ZM11.1351 41.6875C11.0696 42.1534 11.0369 42.6233 11.0374 43.0938V44.3462C11.0376 44.6215 10.947 44.8892 10.7797 45.1078C10.6124 45.3265 10.3777 45.4839 10.112 45.5557C9.84621 45.6276 9.56418 45.6099 9.3095 45.5053C9.05482 45.4008 8.8417 45.2152 8.70308 44.9774C7.85867 45.434 6.87149 45.55 5.9442 45.3017L3.5247 44.653C2.56261 44.3947 1.74246 43.765 1.2446 42.9022C0.746729 42.0394 0.611903 41.0141 0.869763 40.0519L1.84157 36.4227C2.09955 35.4604 2.72921 34.6399 3.59205 34.1418C4.45489 33.6437 5.48026 33.5087 6.44263 33.7665L8.86213 34.414C9.70369 34.6394 10.4025 35.134 10.8884 35.7802C12.0479 34.1668 13.5751 32.8527 15.3434 31.9467C17.1117 31.0408 19.0704 30.569 21.0573 30.5706C23.0431 30.5696 25.0007 31.0413 26.7681 31.9468C28.5355 32.8522 30.0619 34.1654 31.2212 35.7777C31.7255 35.1111 32.4376 34.6316 33.245 34.4152L35.6645 33.7678C36.6267 33.5099 37.6519 33.6447 38.5147 34.1426C39.3775 34.6405 40.0073 35.4606 40.2655 36.4227L41.2386 40.0532C41.3662 40.5298 41.3987 41.0269 41.3343 41.516C41.2698 42.0052 41.1096 42.4769 40.8628 42.9041C40.6161 43.3314 40.2876 43.7058 39.8961 44.0061C39.5046 44.3064 39.0578 44.5266 38.5812 44.6543L36.1629 45.3017C35.2373 45.5502 34.2517 45.4355 33.4078 44.9811C33.2687 45.2186 33.0553 45.4037 32.8005 45.5078C32.5457 45.6119 32.2637 45.6291 31.9982 45.5568C31.7326 45.4845 31.4982 45.3268 31.3313 45.108C31.1644 44.8891 31.0742 44.6214 31.0747 44.3462V43.0938C31.0752 42.6233 31.0426 42.1534 30.977 41.6875L24.4599 43.4345C24.1574 44.082 23.6764 44.6298 23.0735 45.0136C22.4706 45.3974 21.7708 45.6012 21.0561 45.6012C20.3414 45.6012 19.6415 45.3974 19.0386 45.0136C18.4357 44.6298 17.9547 44.082 17.6522 43.4345L11.1351 41.6875ZM17.4494 40.7858C17.6168 40.2146 17.9176 39.6913 18.3269 39.2591C18.7362 38.8269 19.2424 38.4981 19.8037 38.2999V33.1529C18.0472 33.375 16.3808 34.0582 14.9737 35.1329C13.5667 36.2076 12.4691 37.6356 11.7926 39.2717L17.4494 40.7858ZM30.3195 39.2705C29.6428 37.6345 28.5452 36.2068 27.1382 35.1324C25.7311 34.0579 24.0648 33.3749 22.3084 33.1529V38.2987C23.4405 38.6994 24.3246 39.6262 24.6628 40.7871L30.3195 39.2705ZM33.0083 38.3688C32.9657 38.2099 32.9548 38.0442 32.9762 37.8812C32.9976 37.7181 33.051 37.5608 33.1332 37.4184C33.2154 37.2759 33.3249 37.151 33.4554 37.0509C33.5859 36.9507 33.7348 36.8773 33.8937 36.8347L36.3132 36.186C36.6339 36.1003 36.9754 36.1454 37.2629 36.3115C37.5503 36.4775 37.76 36.7508 37.846 37.0714L38.8191 40.7006C38.8617 40.8595 38.8726 41.0252 38.8512 41.1883C38.8298 41.3514 38.7764 41.5086 38.6942 41.6511C38.612 41.7936 38.5025 41.9184 38.372 42.0186C38.2415 42.1187 38.0926 42.1922 37.9337 42.2348L35.5142 42.8835C35.3553 42.9261 35.1895 42.9369 35.0263 42.9154C34.8632 42.8939 34.7059 42.8404 34.5634 42.7581C34.4209 42.6757 34.2961 42.5661 34.196 42.4355C34.0959 42.3049 34.0225 42.1558 33.9801 41.9968L33.0083 38.3688ZM5.79517 36.186C5.63622 36.1432 5.47039 36.1322 5.30717 36.1535C5.14395 36.1748 4.98654 36.2282 4.84394 36.3104C4.70133 36.3926 4.57635 36.5022 4.47612 36.6327C4.37589 36.7633 4.30239 36.9124 4.25982 37.0714L3.28801 40.6994C3.2454 40.8583 3.23449 41.024 3.25593 41.187C3.27736 41.3501 3.33071 41.5074 3.41293 41.6499C3.49515 41.7923 3.60463 41.9172 3.73511 42.0173C3.8656 42.1175 4.01453 42.1909 4.17341 42.2335L6.59291 42.8822C6.75178 42.9248 6.91748 42.9357 7.08056 42.9143C7.24364 42.8929 7.4009 42.8395 7.54336 42.7573C7.68582 42.6751 7.81069 42.5656 7.91083 42.4351C8.01098 42.3046 8.08443 42.1557 8.12701 41.9968L9.09882 38.3676C9.14162 38.2086 9.15267 38.0428 9.13132 37.8796C9.10998 37.7163 9.05667 37.5589 8.97443 37.4163C8.8922 37.2737 8.78266 37.1487 8.65208 37.0485C8.5215 36.9483 8.37244 36.8748 8.21342 36.8322L5.79517 36.186ZM22.3084 41.8415C22.3084 42.1737 22.1765 42.4922 21.9416 42.7271C21.7067 42.9619 21.3882 43.0938 21.0561 43.0938C20.7239 43.0938 20.4054 42.9619 20.1705 42.7271C19.9357 42.4922 19.8037 42.1737 19.8037 41.8415C19.8037 41.5094 19.9357 41.1908 20.1705 40.956C20.4054 40.7211 20.7239 40.5892 21.0561 40.5892C21.3882 40.5892 21.7067 40.7211 21.9416 40.956C22.1765 41.1908 22.3084 41.5094 22.3084 41.8415Z" />
</svg>