<svg width="48" height="46" viewBox="0 0 48 46" fill="none" xmlns="http://www.w3.org/2000/svg">
<path d="M1 43.9H18C26.7 46.1 26.3 46 26.7 45.9L37.7 43.4L46.8 44.7C47.4 44.8 47.9 44.3 47.9 43.7V15.5C47.9 14.9 47.5 14.5 46.9 14.5H41.7L43.2 11.9C46.4 6.6 42.6 0 36.5 0C30.4 0 26.6 6.6 29.6 11.9L31.1 14.5H29.9C29.8 14.5 29.7 14.5 29.7 14.5L23.2 16.2L15.7 14.5C15.6 14.5 15.6 14.5 15.5 14.5H1C0.5 14.5 0 15 0 15.5C0 23.5 0 34 0 42.9C0 43.5 0.4 43.9 1 43.9ZM25.9 43.8L18.8 42L13.3 29L15.5 26.7H29.5L33.7 28.3L25.9 43.8ZM46 42.5L37.8 41.4C37.7 41.4 37.6 41.4 37.4 41.4L28.2 43.5L35.5 29L46 32.8V42.5ZM36.5 2C41.1 2 43.9 6.9 41.6 10.9L36.5 19.8L31.4 10.9C29 7 31.9 2 36.5 2ZM23.7 18.1L30 16.5H32.2L35.5 22.3C35.7 22.6 36 22.8 36.4 22.8C36.8 22.8 37.1 22.6 37.3 22.3L40.6 16.5H46V30.6C29 24.4 29.9 24.6 29.6 24.6H17.4L23.7 18.1ZM15.3 16.5L21.2 17.8L14.3 25L12.1 27.3L3.1 16.6H15.3V16.5ZM2 18.3L9.9 27.8H2V18.3ZM2 29.8H11.4L16.6 42H2V29.8Z" />
</svg>
