<svg width="39" height="39" viewBox="0 0 39 39" fill="none" xmlns="http://www.w3.org/2000/svg">
<g clip-path="url(#clip0_7779_540)">
<path d="M37.7812 36.5625H36.5625V25.5938C36.5625 24.9207 36.0174 24.375 35.3438 24.375H30.4688C29.7951 24.375 29.25 24.9207 29.25 25.5938V36.5625H25.5938V7.3125C25.5938 6.63945 25.0486 6.09375 24.375 6.09375H19.5C18.8264 6.09375 18.2812 6.63945 18.2812 7.3125V36.5625H14.625V19.5C14.625 18.8269 14.0799 18.2812 13.4062 18.2812H8.53125C7.85761 18.2812 7.3125 18.8269 7.3125 19.5V36.5625H2.4375V1.21875C2.4375 0.545695 1.89239 0 1.21875 0C0.54511 0 0 0.545695 0 1.21875V37.7812C0 38.4543 0.54511 39 1.21875 39H37.7812C38.4549 39 39 38.4543 39 37.7812C39 37.1082 38.4549 36.5625 37.7812 36.5625ZM12.1875 36.5625H9.75V20.7188H12.1875V36.5625ZM23.1562 36.5625H20.7188V8.53125H23.1562V36.5625ZM34.125 36.5625H31.6875V26.8125H34.125V36.5625Z"/>
</g>
<defs>
<clipPath id="clip0_7779_540">
<rect width="39" height="39" fill="white"/>
</clipPath>
</defs>
</svg>
