<svg width="50" height="50" viewBox="0 0 50 50" fill="none" xmlns="http://www.w3.org/2000/svg">
    <g id="inspection process">
        <g id="Group">
            <path id="Vector"
                d="M21.456 37.6278C28.4135 37.6278 34.0536 32.0371 34.0536 25.1406C34.0536 18.244 28.4135 12.6533 21.456 12.6533C14.4985 12.6533 8.8584 18.244 8.8584 25.1406C8.8584 32.0371 14.4985 37.6278 21.456 37.6278Z"
                stroke-width="2.07407" stroke-miterlimit="10"
                stroke-linecap="round" stroke-linejoin="round" />
            <path id="Vector_2" d="M31.0894 34.8525L41.4638 44.5648"
                stroke-width="2.07407" stroke-miterlimit="10" stroke-linecap="round"
                stroke-linejoin="round" />
            <path id="Vector_3"
                d="M37.8636 24.0469C38.3031 24.0636 38.7464 24.2351 39.1102 24.5951C39.8458 25.3229 41.0383 25.3228 41.7739 24.595L42.6947 23.6839C43.4302 22.9561 43.4301 21.7761 42.6947 21.0484C41.5082 19.8744 42.3484 17.8668 44.0265 17.8669C45.0667 17.867 45.9101 17.0326 45.9101 16.0032L45.91 14.7149C45.91 13.6856 45.0668 12.8512 44.0264 12.8512C42.3484 12.8512 41.5081 10.8438 42.6946 9.66969C43.4301 8.94184 43.4301 7.76181 42.6946 7.03397L41.7738 6.12289C41.0382 5.39504 39.8457 5.39514 39.1101 6.12299C37.9237 7.29696 35.8947 6.46555 35.8948 4.80513C35.8948 3.77579 35.0516 2.94141 34.0112 2.94141H32.7094C31.6692 2.94141 30.8259 3.7757 30.8259 4.80513C30.8259 6.46546 28.7971 7.29696 27.6106 6.12299C26.875 5.39514 25.6824 5.39514 24.9469 6.12289L24.0261 7.03397C23.2905 7.76181 23.2905 8.94184 24.0261 9.66969C24.3228 9.9632 24.4927 10.3087 24.5545 10.6621M31.3382 13.3583C32.455 12.2532 34.2657 12.2532 35.3826 13.3583C36.4995 14.4633 36.4993 16.255 35.3826 17.3601M19.1737 9.87096C19.5403 9.17959 19.271 8.32514 18.5723 7.96232L17.6977 7.50822C16.999 7.1455 16.1354 7.41195 15.7689 8.10323C15.1775 9.21847 13.5185 9.06959 13.1397 7.86711C12.905 7.1217 12.1039 6.7058 11.3505 6.93827L10.4076 7.2292C9.65425 7.46158 9.23392 8.25412 9.46887 8.99962C9.84767 10.202 8.56828 11.2574 7.44117 10.6722C6.74245 10.3095 5.87881 10.5759 5.51213 11.2672L5.0532 12.1326C4.68662 12.824 4.9559 13.6785 5.65463 14.0413C6.78173 14.6264 6.63128 16.2679 5.416 16.6427C4.66266 16.8751 4.24233 17.6676 4.47728 18.4131L4.77121 19.346C5.00606 20.0914 5.80703 20.5073 6.56046 20.2749"
                stroke-width="2.07407" stroke-miterlimit="10"
                stroke-linecap="round" stroke-linejoin="round" />
            <path id="Vector_4" d="M16.2686 26.2667L19.4376 29.3033L28.1251 20.9785"
                stroke-width="2.07407" stroke-miterlimit="10"
                stroke-linecap="round" stroke-linejoin="round" />
        </g>
    </g>
</svg>