<svg width="48" height="48" viewBox="0 0 48 48" fill="none" xmlns="http://www.w3.org/2000/svg">
    <g id="Packages">
        <path id="Vector"
            d="M2.69971 41.4918C2.70336 41.6688 2.75251 41.7909 2.81434 41.909C2.9256 42.1229 3.12221 42.2884 3.31239 42.3626C3.32525 42.3675 3.33514 42.377 3.34829 42.3814L16.913 46.9887C17.0063 47.0205 17.1097 47.0347 17.2089 47.0367C17.2142 47.0368 17.2188 47.0399 17.2242 47.0399C17.2248 47.0399 17.2254 47.0395 17.226 47.0395C17.2266 47.0395 17.2273 47.0399 17.228 47.0399C17.333 47.0399 17.4371 47.0225 17.5364 46.9887C20.3105 46.0451 7.48762 50.4071 44.6658 37.76C45.0558 37.6278 45.3174 37.2622 45.3174 36.8511V19.3682C45.3174 19.1469 45.2444 18.9453 45.0941 18.7624C44.9825 18.627 44.744 18.4818 44.6348 18.4489L31.7461 14.5606V6.54121C31.7461 6.31043 31.6637 6.11056 31.5261 5.94092C31.417 5.807 31.19 5.66454 31.0955 5.63228L17.513 1.01094C17.3114 0.942011 17.0939 0.943931 16.8943 1.01094L3.33331 5.63228C3.02543 5.73712 2.68262 6.08704 2.68262 6.54169C2.68396 9.719 2.6926 38.3163 2.69673 41.4678C2.69673 41.4695 2.69577 41.4708 2.69577 41.4724C2.69578 41.4794 2.69962 41.485 2.69971 41.4918ZM4.60983 25.3641L16.2642 29.3227V44.7405L4.61674 40.7843L4.60983 25.3641ZM18.1842 29.3183L29.8261 25.3639V40.7871L18.1842 44.7411V29.3183ZM29.8261 23.3054L18.174 27.263V11.8387L29.8261 7.88099V23.3054ZM16.254 27.2538L4.60925 23.3005L4.60293 7.88089L16.254 11.8367V27.2538ZM31.7527 40.1186V24.663L43.3974 20.7078V36.1635L31.7527 40.1186ZM41.2134 19.4223L31.7461 22.6378V16.5665L41.2134 19.4223ZM17.2036 2.93372L27.804 6.54044L17.2172 10.1361L6.62362 6.53968L17.2036 2.93372Z" />
    </g>
</svg>