<svg width="50" height="50" viewBox="0 0 50 50" fill="none" xmlns="http://www.w3.org/2000/svg">
    <path
        d="M36.2499 29.6149L30.3845 23.7495L41.0576 13.0764C45.1922 10.961 42.5961 13.0764 47.8845 6.24951C48.173 5.86489 48.173 5.28797 47.7884 4.99951L45.0961 2.3072C44.7115 1.92259 44.2307 1.92259 43.8461 2.21105C37.3076 7.11489 38.7499 5.48028 37.0191 9.03797L26.2499 19.6149L20.3845 13.7495C22.3076 6.53797 15.3845 -0.000491858 8.26915 2.40335C8.07684 2.49951 7.78838 2.78797 7.69222 3.17259C7.69222 3.46105 7.78838 3.84566 7.98068 4.03797L12.6922 8.74951C13.7499 9.8072 13.7499 11.6341 12.6922 12.6918C11.6345 13.7495 9.80761 13.7495 8.74992 12.6918L4.03838 7.98028C3.74991 7.78797 3.46145 7.69182 3.07684 7.78797C2.78838 7.78797 2.49991 8.07643 2.40376 8.36489C-8.55923e-05 15.4803 6.44222 22.4034 13.7499 20.4803L19.6153 26.3457L17.3076 28.6534C17.1153 28.5572 14.6153 25.288 13.0768 27.9803C12.0191 29.9034 13.8461 31.538 12.3076 31.9226C11.3461 32.2111 10.0961 32.4995 8.84607 33.1726C7.1153 34.1341 5.96145 34.9995 5.28838 35.8649C2.49991 39.4226 1.24991 44.2303 2.21145 45.0957C5.09607 47.6918 4.71145 47.9803 5.67299 47.9803C6.63453 47.9803 10.0961 47.788 14.1345 44.6149C15.3845 43.6534 17.2115 41.0572 18.0768 37.5957C18.4615 36.0572 20.0961 37.9803 22.0191 36.8264C22.5961 36.4418 22.9807 35.9611 22.9807 35.3841C23.0768 34.038 21.8268 33.1726 21.2499 32.5957L23.5576 30.288L29.423 36.1534C27.9807 42.3072 32.4999 48.0764 38.6538 48.0764C39.7115 48.0764 40.673 47.8841 41.7307 47.5957C42.0191 47.4995 42.3076 47.2111 42.4038 46.9226C42.4999 46.6341 42.4038 46.2495 42.1153 46.0572L37.3076 41.3457C34.6153 38.6534 38.7499 34.9034 41.2499 37.4034L45.9615 42.1149C46.1538 42.3072 46.5384 42.4034 46.8268 42.4034C47.1153 42.3072 47.4038 42.1149 47.4999 41.7303C49.9999 34.5187 43.4615 27.5957 36.2499 29.6149ZM21.0576 35.288C20.1922 35.7687 17.0191 33.9418 16.1538 37.2111C15.3845 40.1918 13.7499 42.4995 12.8845 43.1726C9.6153 45.6726 6.82684 46.0572 5.8653 46.1534L3.84607 44.038C3.84607 43.0764 4.23068 40.288 6.82684 37.0187C7.30761 36.4418 8.3653 35.6726 9.80761 34.8072C12.4038 33.3649 15.4807 33.9418 14.7115 30.1918C14.423 28.8457 14.7115 28.8457 14.7115 28.7495C14.9038 28.9418 20.9615 34.9995 21.0576 35.288C21.1538 35.288 21.1538 35.288 21.0576 35.288ZM38.6538 9.90336L39.9038 7.40336L44.3268 4.03797L45.8653 5.57643L42.4999 9.99951C38.8461 11.8264 41.923 9.32643 28.9422 22.2111L27.5961 20.8649C39.0384 9.51874 38.4615 10.1918 38.6538 9.90336ZM6.05761 16.6341C4.42299 14.9995 3.65376 12.788 3.94222 10.5764C6.82684 13.0764 7.78838 15.3841 10.7691 15.3841C12.0191 15.3841 13.173 14.9034 14.1345 14.038C15.9615 12.211 15.9615 9.23028 14.1345 7.3072L10.5768 3.94182C19.423 2.98028 22.2115 15.7687 13.7499 18.5572C13.6538 18.4611 9.23068 19.9034 6.05761 16.6341ZM19.7115 15.7687L25.5768 21.6341L28.2691 24.3264L34.2307 30.288C32.4999 31.1534 31.0576 32.6918 30.2884 34.2303L15.7691 19.7111C17.3076 18.9418 18.8461 17.4995 19.7115 15.7687ZM22.3076 29.038L19.9999 31.3457L18.6538 29.9995L20.9615 27.6918L22.3076 29.038ZM46.1538 39.4226L42.6922 35.9611C41.1538 34.4226 39.2307 34.5187 39.3268 34.6149C35.1922 34.6149 32.9807 39.7111 35.9615 42.6918L39.423 46.1534C29.2307 47.3072 27.9807 31.1534 38.6538 31.1534C43.0768 31.1534 46.6345 34.9995 46.1538 39.4226Z"
    />
</svg>