<svg width="50" height="50" viewBox="0 0 50 50" fill="none" xmlns="http://www.w3.org/2000/svg">
    <path
        d="M12.9808 17.3087C15.8983 17.3087 18.2693 15.1533 18.2693 12.5011C18.2693 9.84881 15.8983 7.69336 12.9808 7.69336C10.0634 7.69336 7.69238 9.84881 7.69238 12.5011C7.69238 15.1533 10.0634 17.3087 12.9808 17.3087ZM12.9808 9.29592C14.9288 9.29592 16.5065 10.7302 16.5065 12.5011C16.5065 14.2719 14.9288 15.7062 12.9808 15.7062C11.0329 15.7062 9.4552 14.2719 9.4552 12.5011C9.4552 10.7302 11.0329 9.29592 12.9808 9.29592Z"
    />
    <path
        d="M3.70482 16.6059C3.70482 16.6147 3.71364 16.6235 3.71364 16.6323C3.81063 16.8612 3.91645 17.0812 4.03108 17.2924C4.03989 17.3188 4.05753 17.3452 4.07517 17.3717L11.7995 30.6C11.7995 30.6 11.7995 30.6 11.7995 30.6088L11.8172 30.6352C11.8613 30.7144 11.923 30.776 11.9847 30.8376C12.0112 30.8552 12.0288 30.8728 12.0553 30.8904C12.117 30.9344 12.1875 30.9784 12.2581 31.0048C12.2757 31.0136 12.2933 31.0224 12.3198 31.0312C12.3991 31.0576 12.4873 31.0752 12.5755 31.0752C12.5931 31.0752 12.6108 31.0664 12.6196 31.0664C12.6284 31.0664 12.6372 31.0664 12.646 31.0664C15.8645 30.7936 21.4815 30.8728 22.9011 32.237C23.1304 32.457 23.1568 32.6419 23.148 32.7915C23.0598 34.7101 21.9047 35.3174 20.5644 36.0127C19.5856 36.5232 18.5804 37.0513 18.2365 38.1602C17.9808 38.9964 18.1748 39.9557 18.8449 41.1703C20.7055 44.55 26.7016 45.1925 31.9658 45.1925C32.8476 45.1925 33.7205 45.1749 34.5406 45.1485C34.9109 45.1397 35.1843 45.1221 35.3254 45.1309C35.3606 45.1397 35.3871 45.1309 35.4224 45.1397C35.4488 45.1397 35.4664 45.1485 35.4929 45.1485C35.5017 45.1485 35.5105 45.1485 35.5194 45.1485C35.5634 45.1485 35.6164 45.1397 35.6604 45.1309C35.6869 45.1221 35.7133 45.122 35.7398 45.1132C35.7839 45.1044 35.8192 45.078 35.8633 45.0604C35.8897 45.0428 35.925 45.034 35.9514 45.0164C35.9867 44.9988 36.0132 44.9724 36.0396 44.946C36.0661 44.9196 36.1013 44.902 36.1278 44.8668C36.1366 44.858 36.1454 44.858 36.1454 44.8492C36.1542 44.8404 36.1542 44.8228 36.1631 44.814C36.1895 44.7788 36.2248 44.7436 36.2512 44.6996L44.0021 31.4361C44.0109 31.4185 44.0285 31.3921 44.0373 31.3657L44.0462 31.3393C44.152 31.1456 44.2401 30.952 44.3107 30.7936L44.3724 30.6704C44.3724 30.6616 44.3812 30.6528 44.3812 30.6528C44.3812 30.644 44.39 30.644 44.39 30.6352C44.9191 29.4118 45.1925 28.1004 45.1925 26.745C45.1925 21.3586 40.8453 16.9668 35.4929 16.9668C30.1405 16.9668 25.7934 21.3498 25.7934 26.745C25.7934 28.074 26.0579 29.359 26.5693 30.5824C26.587 30.6176 26.5958 30.644 26.6134 30.6792C26.6134 30.688 26.6222 30.6968 26.6222 30.7056C26.7192 30.9344 26.825 31.1544 26.9397 31.3657C26.9485 31.3921 26.9661 31.4185 26.9838 31.4449L33.9674 43.397C26.199 43.5994 21.6314 42.5609 20.3969 40.3166C19.9913 39.5685 19.8237 38.9964 19.9295 38.6619C20.053 38.2571 20.6702 37.9402 21.3845 37.5618C22.8218 36.8137 24.7793 35.7927 24.9116 32.8619C24.9468 32.1402 24.6735 31.4801 24.118 30.952C22.231 29.1389 16.9315 29.0949 14.1539 29.2006L21.0758 17.354C21.0847 17.3364 21.1023 17.31 21.1111 17.2836L21.1199 17.2572C21.2257 17.0636 21.3139 16.87 21.3845 16.7116L21.4462 16.5883C21.4462 16.5795 21.455 16.5707 21.455 16.5707C21.455 16.5619 21.4638 16.5619 21.4638 16.5531C21.9929 15.3298 22.2662 14.0184 22.2662 12.663C22.2662 7.2766 17.9191 2.88477 12.5667 2.88477C7.21429 2.88477 2.88477 7.2766 2.88477 12.6718C2.88477 14.0008 3.1493 15.2858 3.66073 16.5091C3.66955 16.5443 3.68718 16.5707 3.70482 16.6059ZM28.2006 29.8695C28.1918 29.8519 28.183 29.8342 28.1742 29.8166C27.7774 28.8397 27.5745 27.81 27.5745 26.7538C27.5745 22.3356 31.1369 18.7358 35.5105 18.7358C39.8842 18.7358 43.4465 22.3356 43.4465 26.7538C43.4465 27.8716 43.2261 28.9453 42.8205 29.8783C42.8117 29.8959 42.794 29.9223 42.7852 29.9487L42.4678 30.6C42.4678 30.6 42.4678 30.6 42.4678 30.6088L35.5105 42.5169L28.5445 30.5912L28.2006 29.8695ZM12.5843 4.65382C16.9579 4.65382 20.5203 8.25354 20.5203 12.6718C20.5203 13.7895 20.2999 14.8633 19.8943 15.7962C19.8854 15.8138 19.8678 15.8402 19.859 15.8666L19.5415 16.5179C19.5415 16.5179 19.5415 16.5179 19.5415 16.5267L12.5843 28.4348L5.61828 16.5003L5.2832 15.7874C5.27438 15.7698 5.26557 15.7522 5.25675 15.7346C4.85113 14.7577 4.64832 13.7279 4.64832 12.6718C4.64832 8.25354 8.2107 4.65382 12.5843 4.65382Z"
    />
    <path
        d="M40.3845 26.4418C40.3845 23.5243 38.0135 21.1533 35.0961 21.1533C32.1786 21.1533 29.8076 23.5243 29.8076 26.4418C29.8076 29.3593 32.1786 31.7302 35.0961 31.7302C38.0135 31.7302 40.3845 29.3593 40.3845 26.4418ZM31.5704 26.4418C31.5704 24.4939 33.1482 22.9161 35.0961 22.9161C37.044 22.9161 38.6217 24.4939 38.6217 26.4418C38.6217 28.3897 37.044 29.9674 35.0961 29.9674C33.1482 29.9674 31.5704 28.3897 31.5704 26.4418Z"
    />
</svg>