<svg width="23" height="23" viewBox="0 0 23 23" fill="none" xmlns="http://www.w3.org/2000/svg">
<rect x="0.765045" y="0.6857" width="20.9142" height="20.9142" rx="10.4571" fill="#07B260"/>
<rect x="0.765045" y="0.6857" width="20.9142" height="20.9142" rx="10.4571" stroke="white" stroke-width="1.25031"/>
<path d="M15.8089 10.0538L15.5494 9.35294L15.0893 8.11001C14.6943 7.04319 13.752 6.354 12.6884 6.354H9.75619C8.69275 6.354 7.7503 7.04319 7.35527 8.11001L6.89512 9.35294L6.63561 10.0538C6.07873 10.2826 5.68115 10.8603 5.68115 11.5422V12.7395C5.68115 13.1416 5.82337 13.5045 6.05056 13.7854V15.1341C6.05056 15.5748 6.38141 15.9322 6.78938 15.9322H7.52819C7.93616 15.9322 8.26701 15.5748 8.26701 15.1341V14.3359H14.1775V15.1341C14.1775 15.5748 14.5084 15.9322 14.9164 15.9322H15.6552C16.0631 15.9322 16.394 15.5748 16.394 15.1341V13.7854C16.6212 13.5048 16.7634 13.1418 16.7634 12.7395V11.5422C16.7634 10.8603 16.3658 10.2826 15.8089 10.0538ZM8.72716 8.70292C8.89547 8.24845 9.30297 7.95038 9.75619 7.95038H12.6884C13.1416 7.95038 13.5491 8.24845 13.7174 8.70292L14.1775 9.94584H8.26701L8.72716 8.70292ZM7.52819 12.7345C7.0849 12.7345 6.78938 12.4162 6.78938 11.9388C6.78938 11.4614 7.0849 11.1431 7.52819 11.1431C7.97148 11.1431 8.63642 11.8592 8.63642 12.3367C8.63642 12.8141 7.97148 12.7345 7.52819 12.7345ZM14.9164 12.7345C14.4731 12.7345 13.8081 12.8141 13.8081 12.3367C13.8081 11.8592 14.4731 11.1431 14.9164 11.1431C15.3597 11.1431 15.6552 11.4614 15.6552 11.9388C15.6552 12.4162 15.3597 12.7345 14.9164 12.7345Z" fill="white"/>
</svg>
