<svg width="44" height="38" viewBox="0 0 44 38" fill="none" xmlns="http://www.w3.org/2000/svg">
<path d="M43.3367 35.4779C43.3367 36.6888 42.3519 37.6732 41.1424 37.6732H2.94366C1.73421 37.6732 0.749351 36.6887 0.749351 35.4779C0.724979 34.2981 1.76665 33.2588 2.94366 33.2835H7.2175C7.90624 33.2835 8.46522 32.7242 8.46522 32.0352V4.40536H13.6506C13.5325 4.97124 13.4701 5.55716 13.4701 6.15798C13.4701 8.42491 14.4675 11.0504 16.5187 14.1854C17.8696 16.2484 19.1963 17.7854 19.2637 17.8636C19.9624 18.6708 20.9747 19.1335 22.0419 19.1335H27.5601C28.4776 19.1335 29.2237 19.8808 29.2237 20.7987C29.2237 21.7175 28.4776 22.4639 27.5601 22.4639H14.8891C12.5958 22.4639 10.7301 24.3322 10.7301 26.6274C10.7301 28.9234 12.5958 30.7909 14.8891 30.7909H26.8297C28.5931 30.7909 30.0271 32.2264 30.0271 33.9907C30.0271 34.6806 30.5861 35.2398 31.2748 35.2398C31.9636 35.2398 32.5226 34.6806 32.5226 33.9907C32.5226 30.8491 29.9689 28.2926 26.8297 28.2926H14.8891C13.9716 28.2926 13.2255 27.5461 13.2255 26.6274C13.2255 25.7095 13.9716 24.9622 14.8891 24.9622H27.56C29.8541 24.9622 31.719 23.0948 31.719 20.7987C31.719 18.5035 29.8541 16.6361 27.56 16.6361H25.8148C26.3089 15.997 26.9353 15.149 27.565 14.1853C29.617 11.0504 30.6144 8.42483 30.6144 6.1579C30.6144 5.55708 30.552 4.97115 30.4339 4.40527H35.621V32.035C35.621 32.7241 36.1799 33.2833 36.8687 33.2833H41.1425C42.3195 33.2589 43.3609 34.2988 43.3367 35.4779Z" fill="#B8B1FF"/>
<path d="M41.1421 1.69668H39.3637C38.6746 1.69668 38.116 2.25558 38.116 2.94498V30.7866H41.1421C41.919 30.7866 42.6677 30.9747 43.3364 31.3292C43.3364 31.3292 43.3364 3.98441 43.3364 3.89208C43.3606 2.71191 42.3197 1.67306 41.1421 1.69668Z" fill="#B8B1FF"/>
<path d="M0.748461 31.3292C1.41724 30.9747 2.16586 30.7866 2.94277 30.7866H5.9689V2.94498C5.9689 2.25558 5.41025 1.69668 4.72118 1.69668H2.94277C1.76518 1.67306 0.724255 2.71191 0.748461 3.892V31.3292Z" fill="#B8B1FF"/>
<path d="M22.0413 0.0751953C18.6907 0.0751953 15.965 2.80311 15.965 6.15772C15.965 7.89953 16.8542 10.1406 18.606 12.8169C19.8587 14.731 21.0964 16.1682 21.1488 16.2281C21.5947 16.768 22.4891 16.7675 22.9347 16.2281C22.9863 16.1682 24.2248 14.731 25.4775 12.8169C27.2293 10.1406 28.1185 7.89944 28.1185 6.15772C28.1184 2.80311 25.3917 0.0751953 22.0413 0.0751953ZM22.0421 7.40601H22.0413C21.3525 7.40518 20.7944 6.84762 20.7944 6.15772C20.7944 5.46782 21.3525 4.90942 22.0413 4.90859H22.0421C22.7317 4.90859 23.2898 5.46782 23.2898 6.15772C23.2898 6.84762 22.7316 7.40601 22.0421 7.40601Z" fill="#2510CC"/>
</svg>
