<svg width="33" height="37" viewBox="0 0 33 37" fill="none" xmlns="http://www.w3.org/2000/svg">
<path fill-rule="evenodd" clip-rule="evenodd" d="M26.0313 12.7383C25.6619 13.0282 25.1827 13.2602 24.6048 13.4484C24.6306 13.7102 24.6435 13.9755 24.6435 14.2441C24.6431 15.3462 24.4188 16.4368 23.9843 17.4497C23.5498 18.4626 22.9141 19.3767 22.1158 20.1365C21.3174 20.8964 20.3731 21.4862 19.34 21.8702C18.3069 22.2543 17.2066 22.4245 16.1058 22.3705C15.0049 22.3166 13.9265 22.0397 12.9359 21.5565C11.9453 21.0733 11.0631 20.394 10.3429 19.5598C9.62267 18.7255 9.07938 17.7536 8.74596 16.7031C8.41254 15.6526 8.29594 14.5453 8.40324 13.4484C7.82534 13.2602 7.34613 13.0282 6.97782 12.7383C6.49962 12.3618 6.17913 11.8592 6.14149 11.2548C6.10588 10.6942 6.32768 10.2181 6.54948 9.88232C6.76834 9.56423 7.02835 9.27651 7.32273 9.02666C7.46652 8.90186 7.60422 8.79096 7.7358 8.69396C7.69646 8.48437 7.65509 8.2334 7.61168 7.94106C7.43236 6.65847 7.34396 5.3648 7.34715 4.06973C7.34715 3.75026 7.48348 3.51218 7.54656 3.41145C7.62592 3.28427 7.71953 3.17541 7.80499 3.08791C7.9749 2.90986 8.19467 2.72875 8.4358 2.55477C8.92417 2.20071 9.59567 1.80289 10.3933 1.43051C11.9836 0.687785 14.168 0 16.504 0C18.8401 0 21.0245 0.688802 22.6147 1.43051C23.3006 1.74401 23.9559 2.12037 24.5723 2.55477C24.8134 2.72875 25.0332 2.91087 25.2031 3.08791C25.2886 3.17541 25.3822 3.28427 25.4615 3.41145C25.5246 3.51218 25.6609 3.75026 25.6609 4.06973C25.6609 5.69966 25.5287 7.02029 25.3964 7.94106C25.353 8.23408 25.3116 8.48505 25.2723 8.69396C25.4025 8.79062 25.5439 8.90152 25.6864 9.02666C25.9407 9.24948 26.2317 9.53945 26.4586 9.88232C26.6814 10.2181 26.9022 10.6942 26.8676 11.2559C26.83 11.8592 26.5095 12.3618 26.0313 12.7383ZM9.38405 4.39327C9.39931 5.76477 9.51326 6.87377 9.62619 7.64906C9.65333 7.8322 9.6791 7.99566 9.70352 8.13946H23.3046C23.3297 7.99499 23.3554 7.83152 23.3819 7.64906C23.4938 6.87377 23.6088 5.76477 23.624 4.39327C23.5448 4.32641 23.463 4.26261 23.3788 4.202C23.0115 3.93645 22.454 3.60171 21.754 3.27512C20.3469 2.61785 18.4616 2.03487 16.504 2.03487C14.5465 2.03487 12.6612 2.61785 11.2541 3.27512C10.5541 3.60171 9.99654 3.93645 9.63026 4.20098C9.54574 4.26224 9.46361 4.32672 9.38405 4.39429M9.16631 10.1743L9.16326 10.1764C8.98761 10.2933 8.81941 10.4211 8.65963 10.5589C8.47853 10.7176 8.33405 10.8723 8.24656 11.0066C8.22621 11.0371 8.20753 11.0687 8.1906 11.1012L8.23536 11.1389C8.38798 11.2589 8.71559 11.4349 9.35454 11.6089C9.4807 11.6428 9.61602 11.6761 9.76049 11.7086L9.76965 11.7107C10.2804 11.8236 10.9092 11.9243 11.6753 12.0037C12.7609 12.1166 14.1273 12.1909 15.8346 12.2072L16.504 12.2092C19.7873 12.2092 21.9107 12.0047 23.2394 11.7107L23.2476 11.7086C23.3927 11.6767 23.5284 11.6435 23.6546 11.6089C24.2925 11.4359 24.6211 11.2589 24.7727 11.1389L24.8175 11.1012C24.8009 11.0687 24.7825 11.0371 24.7625 11.0066C24.6438 10.8406 24.5046 10.6903 24.3484 10.5589C24.189 10.4211 24.0211 10.2933 23.8458 10.1764L23.8418 10.1743H9.16631ZM16.2273 14.2441C18.9154 14.2441 20.9991 14.1016 22.5964 13.8534C22.6046 13.9822 22.6086 14.1125 22.6086 14.2441C22.6079 15.0588 22.4441 15.8651 22.1269 16.6155C21.8097 17.3659 21.3455 18.0452 20.7617 18.6134C20.1778 19.1817 19.4861 19.6273 18.7274 19.924C17.9686 20.2207 17.1582 20.3625 16.3437 20.3411C15.5293 20.3198 14.7274 20.1356 13.9853 19.7994C13.2432 19.4633 12.5758 18.982 12.0226 18.3839C11.4694 17.7858 11.0415 17.0831 10.7641 16.317C10.4868 15.551 10.3655 14.7372 10.4076 13.9236C11.8961 14.1291 13.8038 14.2441 16.2273 14.2441ZM8.44394 33.4501C8.39069 33.8287 8.36417 34.2105 8.36458 34.5927V35.6101C8.36469 35.8338 8.2911 36.0513 8.15519 36.2289C8.01928 36.4065 7.82862 36.5344 7.61271 36.5928C7.3968 36.6512 7.16767 36.6368 6.96076 36.5519C6.75385 36.4669 6.5807 36.3162 6.46808 36.1229C5.78205 36.4939 4.98004 36.5882 4.22668 36.3864L2.261 35.8594C1.47937 35.6496 0.813051 35.138 0.408569 34.437C0.00408602 33.736 -0.105451 32.9031 0.104043 32.1214L0.89357 29.1728C1.10316 28.391 1.61472 27.7245 2.31572 27.3198C3.01672 26.9151 3.84976 26.8054 4.63162 27.0149L6.5973 27.5409C7.28101 27.724 7.84874 28.1259 8.2435 28.6509C9.18553 27.3401 10.4262 26.2725 11.8629 25.5364C13.2995 24.8004 14.8908 24.4172 16.5051 24.4184C18.1184 24.4176 19.7088 24.8008 21.1447 25.5365C22.5805 26.2721 23.8207 27.339 24.7625 28.6489C25.1722 28.1073 25.7508 27.7177 26.4067 27.5419L28.3724 27.0159C29.1541 26.8064 29.987 26.9159 30.688 27.3204C31.389 27.7249 31.9006 28.3912 32.1104 29.1728L32.901 32.1224C33.0047 32.5096 33.0311 32.9134 32.9787 33.3108C32.9263 33.7083 32.7962 34.0915 32.5957 34.4386C32.3952 34.7857 32.1283 35.0899 31.8103 35.3339C31.4922 35.5778 31.1292 35.7568 30.742 35.8604L28.7773 36.3864C28.0253 36.5883 27.2246 36.4951 26.539 36.126C26.426 36.319 26.2526 36.4693 26.0456 36.5539C25.8386 36.6384 25.6095 36.6524 25.3938 36.5937C25.178 36.535 24.9876 36.4068 24.852 36.229C24.7164 36.0513 24.6431 35.8337 24.6435 35.6101V34.5927C24.6439 34.2105 24.6174 33.8287 24.5641 33.4501L19.2694 34.8695C19.0236 35.3955 18.6329 35.8406 18.1431 36.1524C17.6533 36.4642 17.0847 36.6298 16.504 36.6298C15.9234 36.6298 15.3548 36.4642 14.865 36.1524C14.3752 35.8406 13.9844 35.3955 13.7387 34.8695L8.44394 33.4501ZM13.5738 32.7176C13.7099 32.2535 13.9542 31.8284 14.2868 31.4772C14.6193 31.1261 15.0306 30.859 15.4866 30.698V26.5163C14.0595 26.6968 12.7057 27.2518 11.5625 28.125C10.4194 28.9981 9.52773 30.1582 8.97809 31.4875L13.5738 32.7176ZM24.03 31.4865C23.4802 30.1574 22.5885 28.9975 21.4453 28.1245C20.3022 27.2516 18.9484 26.6967 17.5215 26.5163V30.697C18.4412 31.0225 19.1595 31.7754 19.4342 32.7186L24.03 31.4865ZM26.2144 30.7539C26.1798 30.6249 26.1709 30.4902 26.1884 30.3578C26.2058 30.2253 26.2491 30.0975 26.3159 29.9818C26.3827 29.866 26.4716 29.7646 26.5777 29.6832C26.6837 29.6019 26.8047 29.5422 26.9337 29.5076L28.8994 28.9806C29.1599 28.9109 29.4375 28.9476 29.671 29.0825C29.9045 29.2174 30.0749 29.4394 30.1448 29.6999L30.9353 32.6484C30.9699 32.7775 30.9788 32.9121 30.9614 33.0446C30.944 33.1771 30.9006 33.3048 30.8338 33.4206C30.767 33.5363 30.6781 33.6378 30.5721 33.7191C30.4661 33.8005 30.3451 33.8602 30.216 33.8948L28.2503 34.4218C28.1212 34.4564 27.9865 34.4652 27.8539 34.4477C27.7214 34.4302 27.5936 34.3868 27.4778 34.3199C27.3621 34.253 27.2607 34.164 27.1793 34.0578C27.098 33.9517 27.0384 33.8306 27.0039 33.7014L26.2144 30.7539ZM4.10561 28.9806C3.97647 28.9458 3.84174 28.9368 3.70914 28.9541C3.57653 28.9715 3.44864 29.0148 3.33279 29.0816C3.21693 29.1484 3.11539 29.2374 3.03396 29.3435C2.95253 29.4496 2.89282 29.5707 2.85823 29.6999L2.06871 32.6474C2.03408 32.7765 2.02523 32.9111 2.04264 33.0436C2.06005 33.1761 2.1034 33.3038 2.1702 33.4196C2.23699 33.5353 2.32594 33.6367 2.43195 33.7181C2.53795 33.7995 2.65895 33.8591 2.78803 33.8937L4.75371 34.4208C4.88278 34.4554 5.0174 34.4642 5.14989 34.4468C5.28239 34.4294 5.41015 34.3861 5.52589 34.3193C5.64163 34.2525 5.74307 34.1635 5.82443 34.0575C5.90579 33.9515 5.96547 33.8305 6.00006 33.7014L6.78959 30.7529C6.82437 30.6238 6.83334 30.4891 6.816 30.3565C6.79866 30.2238 6.75535 30.096 6.68854 29.9801C6.62173 29.8642 6.53273 29.7627 6.42664 29.6813C6.32056 29.5998 6.19945 29.5401 6.07027 29.5055L4.10561 28.9806ZM17.5215 33.5753C17.5215 33.8451 17.4143 34.1039 17.2235 34.2947C17.0327 34.4855 16.7739 34.5927 16.504 34.5927C16.2342 34.5927 15.9754 34.4855 15.7846 34.2947C15.5938 34.1039 15.4866 33.8451 15.4866 33.5753C15.4866 33.3054 15.5938 33.0467 15.7846 32.8558C15.9754 32.665 16.2342 32.5578 16.504 32.5578C16.7739 32.5578 17.0327 32.665 17.2235 32.8558C17.4143 33.0467 17.5215 33.3054 17.5215 33.5753Z" fill="#1F5ADB"/>
</svg>
