<svg width="43" height="43" viewBox="0 0 43 43" fill="none" xmlns="http://www.w3.org/2000/svg">
    <g clip-path="url(#clip0_7681_1933)">
        <path
            d="M27.9355 15.2136H11.4898L13.1468 11.8015C13.3556 11.3715 13.7914 11.0986 14.2697 11.0986H25.1556C25.6339 11.0986 26.0698 11.3715 26.2785 11.8015L27.9355 15.2136Z"
            fill="#2510CC" />
        <path
            d="M36.0174 22.897V24.8368C36.0174 25.5255 35.4584 26.0845 34.7697 26.0845H34.4253C34.4253 23.2014 32.0796 20.8566 29.1966 20.8566C26.3135 20.8566 23.9686 23.2014 23.9686 26.0845H18.6209C18.6209 23.2014 16.2752 20.8566 13.3922 20.8566C10.5091 20.8566 8.16427 23.2014 8.16427 26.0845H7.81906C7.13033 26.0845 6.57135 25.5255 6.57135 24.8368V18.9567C6.57135 18.2671 7.13033 17.709 7.81906 17.709H30.8286C33.69 17.709 36.0174 20.0364 36.0174 22.897Z"
            fill="#2510CC" />
        <path
            d="M29.197 28.8174C30.7064 28.8174 31.9299 27.5938 31.9299 26.0845C31.9299 24.5751 30.7064 23.3516 29.197 23.3516C27.6877 23.3516 26.4641 24.5751 26.4641 26.0845C26.4641 27.5938 27.6877 28.8174 29.197 28.8174Z"
            fill="#2510CC" />
        <path
            d="M13.3917 28.8174C14.9011 28.8174 16.1246 27.5938 16.1246 26.0845C16.1246 24.5751 14.9011 23.3516 13.3917 23.3516C11.8824 23.3516 10.6588 24.5751 10.6588 26.0845C10.6588 27.5938 11.8824 28.8174 13.3917 28.8174Z"
            fill="#2510CC" />
        <path
            d="M2.66845 18.7509C3.26927 14.3359 5.43147 10.2652 8.75655 7.28878C12.0816 4.3124 16.3661 2.61251 20.8206 2.50222C24.2809 2.41704 27.6865 3.28786 30.6509 4.986L29.3888 5.26432C28.7159 5.41272 28.2907 6.07858 28.4391 6.75143C28.5846 7.42919 29.2707 7.85117 29.9263 7.70111L34.0071 6.80109C34.6547 6.67457 35.1068 5.99432 34.9733 5.34842L34.1934 1.23387C34.0651 0.556781 33.4119 0.11193 32.7352 0.240278C32.0581 0.368626 31.6133 1.02151 31.7416 1.69852L31.9621 2.86189C28.5875 0.911382 24.7047 -0.0904496 20.7589 0.00753753C15.7121 0.132392 10.8585 2.05795 7.0921 5.42944C3.32566 8.80093 0.876484 13.4124 0.195731 18.4145C-0.477202 23.3594 0.606063 28.3978 3.24598 32.6014C3.61472 33.1899 4.39146 33.3578 4.96624 32.9944C5.54984 32.6279 5.72577 31.8578 5.35927 31.2743C3.02987 27.565 2.07421 23.1174 2.66845 18.7509Z"
            fill="#B8B1FF" />
        <path
            d="M39.3443 9.98958C38.9778 9.40598 38.2077 9.23005 37.6241 9.59655C37.0405 9.96304 36.8646 10.7332 37.2311 11.3167C39.5605 15.0259 40.5161 19.4735 39.9219 23.84C39.3211 28.255 37.1589 32.3257 33.8338 35.3021C30.3953 38.3826 25.914 40.0971 21.3036 40.0944C18.0036 40.0943 14.7701 39.2269 11.9391 37.605L13.2015 37.3266C13.8744 37.1782 14.2996 36.5123 14.1512 35.8395C14.0028 35.1665 13.3366 34.7412 12.6641 34.8898L8.58303 35.7898C7.93555 35.9164 7.48363 36.5966 7.61714 37.2425L8.39696 41.357C8.52215 42.0383 9.19466 42.481 9.8552 42.3506C10.5323 42.2223 10.9771 41.5694 10.8488 40.8924L10.6285 39.7301C13.8523 41.5933 17.54 42.5899 21.304 42.5899C26.527 42.5928 31.6034 40.6506 35.4981 37.1615C39.2646 33.79 41.7138 29.1785 42.3945 24.1764C43.0675 19.2316 41.9843 14.1932 39.3443 9.98958Z"
            fill="#B8B1FF" />
    </g>
    <defs>
        <clipPath id="clip0_7681_1933">
            <rect width="42.5886" height="42.5886" fill="white" />
        </clipPath>
    </defs>
</svg>