<svg width="44" height="43" viewBox="0 0 44 43" fill="none" xmlns="http://www.w3.org/2000/svg">
<path d="M11.7914 19.5645H17.4444V25.0078H7.71227L10.7329 20.1525C10.9599 19.7865 11.3607 19.5645 11.7914 19.5645Z" fill="#B8B1FF"/>
<path d="M31.3876 25.0078H19.9386V19.5645H26.724C27.1189 19.5645 27.4906 19.7516 27.7259 20.0685L31.3876 25.0078Z" fill="#B8B1FF"/>
<path d="M38.4211 27.9663C38.2989 27.9596 32.7257 27.5013 32.6093 27.5029H1.86409C1.17735 27.5029 0.619452 28.0586 0.616957 28.7465L0.580357 37.592C0.565384 38.2632 1.15572 38.8571 1.82749 38.8438H3.61097C3.61097 35.4043 6.40876 32.6053 9.8468 32.6053C13.2857 32.6053 16.0826 35.4043 16.0826 38.8438H27.6538C27.6538 35.4035 30.4508 32.6053 33.8897 32.6053C37.3285 32.6053 40.1255 35.4035 40.1255 38.8438H41.9397C42.5558 38.8438 43.0671 38.3963 43.1686 37.8091V32.8074C42.9608 30.2762 40.9894 28.2316 38.4211 27.9663ZM23.3037 34.4211H20.5009C19.8117 34.4211 19.2538 33.8629 19.2538 33.1734C19.2538 32.4846 19.8117 31.9257 20.5009 31.9257H23.3037C23.993 31.9257 24.5509 32.4846 24.5509 33.1734C24.5509 33.8629 23.993 34.4211 23.3037 34.4211Z" fill="#B8B1FF"/>
<path d="M33.8898 42.5878C35.9561 42.5878 37.6312 40.912 37.6312 38.8447C37.6312 36.7774 35.9561 35.1016 33.8898 35.1016C31.8234 35.1016 30.1483 36.7774 30.1483 38.8447C30.1483 40.912 31.8234 42.5878 33.8898 42.5878Z" fill="#B8B1FF"/>
<path d="M13.5884 38.8453C13.5884 40.9094 11.9098 42.5888 9.84662 42.5888C7.78348 42.5888 6.10539 40.9094 6.10539 38.8453C6.10539 36.7813 7.7834 35.1025 9.84662 35.1025C11.9098 35.1025 13.5884 36.7813 13.5884 38.8453Z" fill="#B8B1FF"/>
<path d="M15.2416 4.08848C15.2439 1.83147 13.4168 -2.6704e-05 11.1608 -0.00228275C8.90476 -0.0045388 7.07404 1.8233 7.07178 4.08031C7.06953 6.33732 8.89658 8.16882 11.1526 8.17108C13.4087 8.17333 15.2394 6.34549 15.2416 4.08848Z" fill="#2510CC"/>
<path d="M18.2428 14.5752C17.8437 11.0301 14.8888 8.15366 11.1614 8.17196C7.43406 8.15366 4.47905 11.0301 4.07995 14.5752C3.99594 15.3172 4.57213 15.9693 5.31885 15.9693H17.004C17.7507 15.9693 18.3268 15.3172 18.2428 14.5752Z" fill="#2510CC"/>
<path d="M34.0433 -0.000976562H34.0425C29.0151 -0.000144753 24.9259 4.09069 24.9259 9.11898C24.9259 14.1481 29.0151 18.2389 34.0425 18.2398H34.0433C39.0691 18.2398 43.1591 14.1481 43.1591 9.11898C43.1591 4.09069 39.0691 -0.000976562 34.0433 -0.000976562ZM36.8183 10.3667H35.2902V11.8964C35.2902 12.5851 34.7312 13.1441 34.0433 13.1441H34.0425C33.3529 13.1433 32.7956 12.5851 32.7956 11.8964V10.3667H31.2668C30.578 10.3667 30.0199 9.80855 30.0199 9.11898C30.0199 8.43024 30.578 7.87127 31.2668 7.87127H32.7956V6.3424C32.7956 5.65283 33.3529 5.09552 34.0425 5.09469H34.0433C34.7312 5.09469 35.2902 5.65283 35.2902 6.3424V7.87127H36.8183C37.5078 7.87127 38.066 8.43024 38.066 9.11898C38.066 9.80855 37.5078 10.3667 36.8183 10.3667Z" fill="#B8B1FF"/>
</svg>
