<svg width="43" height="44" viewBox="0 0 43 44" fill="none" xmlns="http://www.w3.org/2000/svg">
    <g id="Group">
        <path id="Vector" d="M33.6425 10.6118H24.5101V1.47852L33.6425 10.6118Z" fill="#B8B1FF" />
        <path id="Vector_2"
            d="M8.51823 11.2306C9.3456 11.2306 10.0163 10.5598 10.0163 9.73246C10.0163 8.90509 9.3456 8.23438 8.51823 8.23438C7.69086 8.23438 7.02014 8.90509 7.02014 9.73246C7.02014 10.5598 7.69086 11.2306 8.51823 11.2306Z"
            fill="#B8B1FF" />
        <path id="Vector_3"
            d="M11.9588 16.4699H5.07892C5.4366 14.9011 6.84319 13.7266 8.51845 13.7266C10.1945 13.7266 11.6011 14.9011 11.9588 16.4699Z"
            fill="#B8B1FF" />
        <path id="Vector_4"
            d="M19.1532 23.9431L20.455 18.444C20.8585 16.7496 22.3565 15.5659 24.0975 15.5659H34.3729V13.1071H23.2624C22.5736 13.1071 22.0147 12.5481 22.0147 11.8594V0.748047H1.24771C0.558976 0.748047 0 1.30702 0 1.99576V42.089C0 42.7777 0.558976 43.3367 1.24771 43.3367H33.1251C33.8139 43.3367 34.3729 42.7777 34.3729 42.089V37.9424H25.6646C25.3402 39.6784 23.8139 40.996 21.9847 40.996C20.0857 40.996 18.5119 39.5744 18.2732 37.7394C16.8042 37.2329 15.7462 35.8371 15.7462 34.1993V29.8056C15.7462 27.2994 17.1195 25.1068 19.1532 23.9431ZM11.8949 33.9372H4.47763C3.78806 33.9372 3.22992 33.3783 3.22992 32.6895C3.22992 32.0008 3.78806 31.4418 4.47763 31.4418H11.8949C12.5836 31.4418 13.1426 32.0008 13.1426 32.6895C13.1426 33.3783 12.5836 33.9372 11.8949 33.9372ZM11.8949 28.9464H4.47763C3.78806 28.9464 3.22992 28.3874 3.22992 27.6987C3.22992 27.0099 3.78806 26.451 4.47763 26.451H11.8949C12.5836 26.451 13.1426 27.0099 13.1426 27.6987C13.1426 28.3874 12.5836 28.9464 11.8949 28.9464ZM11.8949 23.9555H4.47763C3.78889 23.9555 3.22992 23.3966 3.22992 22.7078C3.22992 22.0191 3.78889 21.4601 4.47763 21.4601H11.8949C12.5836 21.4601 13.1426 22.0191 13.1426 22.7078C13.1426 23.3966 12.5836 23.9555 11.8949 23.9555ZM14.5425 17.717C14.5425 18.4057 13.9835 18.9647 13.2948 18.9647H3.74314C3.0544 18.9647 2.49543 18.4057 2.49543 17.717V17.2536C2.49543 15.1001 3.63251 13.2077 5.33772 12.143C4.82865 11.4726 4.52504 10.6374 4.52504 9.73242C4.52504 7.53062 6.31676 5.7389 8.51856 5.7389C10.7212 5.7389 12.5121 7.53062 12.5121 9.73242C12.5121 10.6374 12.2093 11.4726 11.7002 12.143C13.4054 13.2077 14.5425 15.1001 14.5425 17.2536V17.717Z"
            fill="#B8B1FF" />
        <g id="Group_2">
            <path id="Vector_5"
                d="M38.9073 23.0772C38.7168 23.0606 38.5247 23.0522 38.33 23.0522H22.5007C22.3061 23.0522 22.1131 23.0606 21.9226 23.0772L22.8833 19.0213C23.0173 18.4582 23.5197 18.0605 24.0978 18.0605H36.733C37.3111 18.0605 37.8127 18.4582 37.9474 19.0213L38.9073 23.0772Z"
                fill="#2510CC" />
            <path id="Vector_6"
                d="M38.3303 25.5479H22.5009C20.1527 25.5479 18.2421 27.4585 18.2421 29.8059V34.1987C18.2421 34.8882 18.801 35.4464 19.4898 35.4464H20.7375V37.2539C20.7375 37.9418 21.2956 38.5016 21.9852 38.5016C22.6739 38.5016 23.2329 37.9418 23.2329 37.2539V35.4464H37.5974V37.2539C37.5974 37.9418 38.1564 38.5016 38.8452 38.5016C39.5347 38.5016 40.0929 37.9418 40.0929 37.2539V35.4464H41.3414C42.0302 35.4464 42.5891 34.8882 42.5891 34.1987V29.8059C42.5891 27.4585 40.6785 25.5479 38.3303 25.5479ZM23.6488 31.6966C22.9626 31.6966 22.4069 31.1409 22.4069 30.4547C22.4069 29.7693 22.9626 29.2128 23.6488 29.2128C24.3342 29.2128 24.8907 29.7693 24.8907 30.4547C24.8907 31.1409 24.3342 31.6966 23.6488 31.6966ZM37.1824 31.6966C36.4961 31.6966 35.9405 31.1409 35.9405 30.4547C35.9405 29.7693 36.4961 29.2128 37.1824 29.2128C37.8678 29.2128 38.4234 29.7693 38.4234 30.4547C38.4234 31.1409 37.8678 31.6966 37.1824 31.6966Z"
                fill="#2510CC" />
        </g>
    </g>
</svg>