<svg width="35" height="37" viewBox="0 0 35 37" fill="none" xmlns="http://www.w3.org/2000/svg">
<path d="M17.5 14.6455C20.0543 14.6455 22.125 12.5748 22.125 10.0205C22.125 7.46619 20.0543 5.39551 17.5 5.39551C14.9457 5.39551 12.875 7.46619 12.875 10.0205C12.875 12.5748 14.9457 14.6455 17.5 14.6455Z" stroke="#1F5ADB" stroke-width="1.54167" stroke-linecap="round" stroke-linejoin="round"/>
<path d="M17.5 17.7285C14.7301 17.8047 12.0163 18.528 9.57588 19.8406C8.9422 20.1672 8.41107 20.6625 8.0411 21.2719C7.67112 21.8813 7.47667 22.581 7.47921 23.2939V24.0031C7.47717 24.1927 7.51275 24.3808 7.58389 24.5565C7.65503 24.7322 7.76032 24.8921 7.89365 25.0269C8.02699 25.1617 8.18574 25.2687 8.3607 25.3417C8.53566 25.4147 8.72337 25.4523 8.91296 25.4523H26.0871C26.2767 25.4523 26.4644 25.4147 26.6394 25.3417C26.8143 25.2687 26.9731 25.1617 27.1064 25.0269C27.2398 24.8921 27.3451 24.7322 27.4162 24.5565C27.4873 24.3808 27.5229 24.1927 27.5209 24.0031V23.2939C27.5206 22.5837 27.3248 21.8872 26.955 21.2808C26.5851 20.6744 26.0555 20.1814 25.4242 19.856C22.9851 18.5381 20.2713 17.8095 17.5 17.7285Z" stroke="#1F5ADB" stroke-width="1.54167" stroke-linecap="round" stroke-linejoin="round"/>
<path d="M31.375 0.770508H3.625C3.01169 0.770508 2.42349 1.01415 1.98982 1.44782C1.55614 1.8815 1.3125 2.46969 1.3125 3.08301V27.7497C1.3125 28.363 1.55614 28.9512 1.98982 29.3849C2.42349 29.8185 3.01169 30.0622 3.625 30.0622H11.3333L17.5 36.2288L23.6667 30.0622H31.375C31.9883 30.0622 32.5765 29.8185 33.0102 29.3849C33.4439 28.9512 33.6875 28.363 33.6875 27.7497V3.08301C33.6875 2.46969 33.4439 1.8815 33.0102 1.44782C32.5765 1.01415 31.9883 0.770508 31.375 0.770508Z" stroke="#1F5ADB" stroke-width="1.54167" stroke-linecap="round" stroke-linejoin="round"/>
</svg>
