<svg width="38" height="37" viewBox="0 0 38 37" fill="none" xmlns="http://www.w3.org/2000/svg">
<path d="M27.8613 0.770508H9.36133C8.08417 0.770508 7.04883 1.80585 7.04883 3.08301V33.9163C7.04883 35.1935 8.08417 36.2288 9.36133 36.2288H27.8613C29.1385 36.2288 30.1738 35.1935 30.1738 33.9163V3.08301C30.1738 1.80585 29.1385 0.770508 27.8613 0.770508Z" stroke="#1F5ADB" stroke-width="1.3875" stroke-linecap="round" stroke-linejoin="round"/>
<path d="M17.8405 3.85449H19.3822M16.2988 33.1462H20.9238" stroke="#1F5ADB" stroke-width="1.3875" stroke-linecap="round" stroke-linejoin="round"/>
<path d="M27.0902 4.62467C27.5159 4.62467 27.861 4.27956 27.861 3.85384C27.861 3.42812 27.5159 3.08301 27.0902 3.08301C26.6644 3.08301 26.3193 3.42812 26.3193 3.85384C26.3193 4.27956 26.6644 4.62467 27.0902 4.62467Z" fill="#1F5ADB"/>
<path d="M7.04883 30.0625H30.1738" stroke="#1F5ADB" stroke-width="1.3875" stroke-linecap="round" stroke-linejoin="round"/>
<path d="M26.32 18.5V15.4167L24.4083 14.9387C24.3338 14.7129 24.2463 14.4916 24.1462 14.2758L25.1483 12.5954L22.9746 10.4217L21.2942 11.4237C21.0784 11.3237 20.8571 11.2362 20.6312 11.1617L20.1533 9.25H17.07L16.5921 11.1617C16.3662 11.2362 16.1449 11.3237 15.9292 11.4237L14.2487 10.4217L12.075 12.5954L13.0771 14.2758C12.977 14.4916 12.8895 14.7129 12.815 14.9387L10.9033 15.4167V18.5L12.815 18.9779C12.8895 19.2038 12.977 19.4251 13.0771 19.6408L12.075 21.3212L14.2487 23.495L15.9292 22.4929C16.1449 22.593 16.3662 22.6805 16.5921 22.755L17.07 24.6667H20.1533L20.6312 22.755C20.8571 22.6805 21.0784 22.593 21.2942 22.4929L22.9746 23.495L25.1483 21.3212L24.1462 19.6408C24.2463 19.4251 24.3338 19.2038 24.4083 18.9779L26.32 18.5Z" stroke="#1F5ADB" stroke-width="1.3875" stroke-linecap="round" stroke-linejoin="round"/>
<path d="M18.6117 20.0417C20.3145 20.0417 21.695 18.6612 21.695 16.9583C21.695 15.2555 20.3145 13.875 18.6117 13.875C16.9088 13.875 15.5283 15.2555 15.5283 16.9583C15.5283 18.6612 16.9088 20.0417 18.6117 20.0417Z" stroke="#1F5ADB" stroke-width="1.3875" stroke-linecap="round" stroke-linejoin="round"/>
</svg>
