<svg width="35" height="35" viewBox="0 0 35 35" fill="none" xmlns="http://www.w3.org/2000/svg">
<path d="M25.825 20.9149L21.4847 16.5746L29.3827 8.67648C32.4424 7.1111 30.5212 8.67648 34.4347 3.62456C34.6481 3.33994 34.6481 2.91302 34.3635 2.69956L32.3712 0.707251C32.0866 0.422635 31.7308 0.422635 31.4462 0.636097C26.6077 4.26494 27.675 3.05533 26.3943 5.68802L18.425 13.5149L14.0847 9.17456C15.5077 3.83802 10.3847 -1.00044 5.11928 0.778404C4.97697 0.849558 4.76351 1.06302 4.69235 1.34764C4.69235 1.5611 4.76351 1.84571 4.90581 1.98802L8.39235 5.47456C9.17504 6.25725 9.17504 7.60917 8.39235 8.39187C7.60966 9.17456 6.25774 9.17456 5.47504 8.39187L1.98851 4.90533C1.77504 4.76302 1.56158 4.69187 1.27697 4.76302C1.06351 4.76302 0.850044 4.97648 0.77889 5.18994C-0.999956 10.4553 3.76735 15.5784 9.17504 14.1553L13.5154 18.4957L11.8077 20.2034C11.6654 20.1323 9.81543 17.713 8.67697 19.7053C7.89428 21.1284 9.2462 22.338 8.10774 22.6226C7.3962 22.8361 6.4712 23.0496 5.5462 23.5476C4.26543 24.2592 3.41158 24.8996 2.91351 25.5399C0.850044 28.1726 -0.0749559 31.7303 0.636583 32.3707C2.7712 34.2919 2.48658 34.5053 3.19812 34.5053C3.90966 34.5053 6.4712 34.363 9.45966 32.0149C10.3847 31.3034 11.7366 29.3823 12.377 26.8207C12.6616 25.6823 13.8712 27.1053 15.2943 26.2515C15.7212 25.9669 16.0058 25.6111 16.0058 25.1842C16.077 24.188 15.152 23.5476 14.725 23.1207L16.4327 21.413L20.7731 25.7534C19.7058 30.3073 23.05 34.5765 27.6039 34.5765C28.3866 34.5765 29.0981 34.4342 29.8808 34.2207C30.0943 34.1496 30.3077 33.9361 30.3789 33.7226C30.45 33.5092 30.3789 33.2246 30.1654 33.0823L26.6077 29.5957C24.6154 27.6034 27.675 24.8284 29.525 26.6784L33.0116 30.1649C33.1539 30.3073 33.4385 30.3784 33.652 30.3784C33.8654 30.3073 34.0789 30.1649 34.15 29.8803C36 24.5438 31.1616 19.4207 25.825 20.9149ZM14.5827 25.113C13.9424 25.4688 11.5943 24.1169 10.9539 26.5361C10.3847 28.7419 9.17504 30.4496 8.53466 30.9476C6.11543 32.7976 4.05197 33.0823 3.34043 33.1534L1.8462 31.588C1.8462 30.8765 2.13081 28.813 4.05197 26.3938C4.40774 25.9669 5.19043 25.3976 6.25774 24.7573C8.17889 23.6899 10.4558 24.1169 9.88658 21.3419C9.67312 20.3457 9.88658 20.3457 9.88658 20.2746C10.0289 20.4169 14.5116 24.8996 14.5827 25.113C14.6539 25.113 14.6539 25.113 14.5827 25.113ZM27.6039 6.32841L28.5289 4.4784L31.802 1.98802L32.9404 3.12648L30.45 6.39956C27.7462 7.75148 30.0231 5.90148 20.4174 15.4361L19.4212 14.4399C27.8885 6.04379 27.4616 6.54187 27.6039 6.32841ZM3.48274 11.3092C2.27312 10.0996 1.70389 8.46302 1.91735 6.82648C4.05197 8.67648 4.76351 10.3842 6.96927 10.3842C7.89427 10.3842 8.74812 10.0284 9.45966 9.38802C10.8116 8.0361 10.8116 5.83033 9.45966 4.40725L6.82697 1.91687C13.3731 1.20533 15.4366 10.6688 9.17504 12.7323C9.10389 12.6611 5.83081 13.7284 3.48274 11.3092ZM13.5866 10.6688L17.927 15.0092L19.9193 17.0015L24.3308 21.413C23.05 22.0534 21.9827 23.1919 21.4135 24.3303L10.6693 13.5861C11.8077 13.0169 12.9462 11.9496 13.5866 10.6688ZM15.5077 20.488L13.8 22.1957L12.8039 21.1996L14.5116 19.4919L15.5077 20.488ZM33.1539 28.1726L30.5924 25.6111C29.4539 24.4726 28.0308 24.5438 28.102 24.6149C25.0424 24.6149 23.4058 28.3861 25.6116 30.5919L28.1731 33.1534C20.6308 34.0073 19.7058 22.0534 27.6039 22.0534C30.877 22.0534 33.5097 24.8996 33.1539 28.1726Z" fill="#1F5ADB"/>
</svg>
