<svg width="25" height="26" viewBox="0 0 25 26" fill="none" xmlns="http://www.w3.org/2000/svg">
<circle opacity="0.16" cx="12.5" cy="13" r="12.5" fill="#2158DB" fill-opacity="0.5"/>
<path d="M8.68765 9H10.7588V10.9943H7.19315L8.29985 9.21546C8.38301 9.08137 8.52985 9 8.68765 9Z" fill="#2510CC"/>
<path d="M15.8673 10.9943H11.6726V9H14.1586C14.3033 9 14.4395 9.06857 14.5257 9.18468L15.8673 10.9943Z" fill="#2510CC"/>
<path d="M18.4442 12.0789C18.3994 12.0765 16.3575 11.9086 16.3149 11.9092H5.05051C4.7989 11.9092 4.5945 12.1128 4.59359 12.3648L4.58018 15.6056C4.57469 15.8515 4.79098 16.0691 5.0371 16.0642H5.69053C5.69053 14.8041 6.71558 13.7786 7.9752 13.7786C9.23512 13.7786 10.2599 14.8041 10.2599 16.0642H14.4993C14.4993 14.8038 15.524 13.7786 16.784 13.7786C18.0439 13.7786 19.0686 14.8038 19.0686 16.0642H19.7333C19.959 16.0642 20.1464 15.9003 20.1836 15.6851V13.8526C20.1074 12.9252 19.3852 12.1761 18.4442 12.0789ZM12.9055 14.4438H11.8786C11.6261 14.4438 11.4217 14.2393 11.4217 13.9867C11.4217 13.7344 11.6261 13.5296 11.8786 13.5296H12.9055C13.158 13.5296 13.3624 13.7344 13.3624 13.9867C13.3625 14.2393 13.1581 14.4438 12.9055 14.4438Z" fill="#2510CC"/>
<path d="M16.784 17.4352C17.5411 17.4352 18.1548 16.8212 18.1548 16.0638C18.1548 15.3064 17.5411 14.6924 16.784 14.6924C16.0269 14.6924 15.4132 15.3064 15.4132 16.0638C15.4132 16.8212 16.0269 17.4352 16.784 17.4352Z" fill="#2510CC"/>
<path d="M9.34605 16.0627C9.34605 16.8189 8.73102 17.4342 7.97513 17.4342C7.21925 17.4342 6.60443 16.8189 6.60443 16.0627C6.60443 15.3065 7.21922 14.6914 7.97513 14.6914C8.73102 14.6914 9.34605 15.3065 9.34605 16.0627Z" fill="#2510CC"/>
</svg>
