<svg width="25" height="18" viewBox="0 0 25 18" fill="none" xmlns="http://www.w3.org/2000/svg">
<path d="M3.90625 0C1.31758 0 0 1.92324 0 4.29557V12.8867C0 15.259 1.31758 17.1823 3.90625 17.1823H6.25V0H3.90625ZM21.0938 0H18.75V17.1823H21.0938C23.6824 17.1823 25 15.259 25 12.8867V4.29557C25 1.92324 23.6824 0 21.0938 0Z" fill="#EC1C24"/>
<path fill-rule="evenodd" clip-rule="evenodd" d="M17.0836 9.13186C16.9051 9.04502 16.875 8.98378 16.9281 8.77194C17.0605 8.24212 17.1969 7.71441 17.3309 7.18543C17.3422 7.14222 17.3523 7.09776 17.3676 7.03441C17.202 7.07007 17.0473 7.10195 16.8926 7.13803C16.5797 7.20934 16.2688 7.28191 15.9566 7.35281C15.7527 7.39853 15.6594 7.33729 15.6016 7.12083C15.5473 6.91612 15.4937 6.71099 15.4066 6.47691C15.3867 6.51215 15.3723 6.55284 15.3469 6.58262C14.9893 7.01554 14.6305 7.44845 14.2703 7.88136C14.159 8.01308 14.0352 8.07055 13.9477 8.01854C13.8191 7.94051 13.8238 7.8025 13.8449 7.67372C13.9398 7.11118 14.0383 6.5499 14.1359 5.98737C14.2074 5.57921 14.2789 5.17314 14.3523 4.74778C14.3152 4.76288 14.2902 4.77043 14.268 4.78218C14.0656 4.8946 13.8656 5.00912 13.6629 5.11903C13.4145 5.25285 13.2895 5.2088 13.1598 4.95081C12.8852 4.40422 12.6129 3.85679 12.3391 3.30977C12.325 3.28292 12.3156 3.25608 12.2941 3.22168L12.2492 3.30977C11.9766 3.85707 11.7033 4.40408 11.4293 4.95081C11.2992 5.2088 11.1738 5.25326 10.9254 5.11903C10.7227 5.00912 10.5227 4.8946 10.3203 4.78218C10.298 4.77043 10.273 4.76288 10.2359 4.74778C10.3094 5.17314 10.3809 5.57921 10.4523 5.98737C10.55 6.54823 10.6488 7.1095 10.743 7.67372C10.7648 7.80292 10.7691 7.94093 10.6406 8.01854C10.5527 8.07055 10.4293 8.01308 10.3184 7.88136C9.95794 7.44845 9.59896 7.01554 9.24141 6.58262C9.21602 6.55284 9.20117 6.51215 9.18164 6.47691C9.09453 6.71141 9.04102 6.91612 8.98672 7.12083C8.92891 7.33729 8.83477 7.39853 8.63164 7.35281L7.6957 7.13803C7.54102 7.10195 7.38633 7.07007 7.2207 7.03441C7.23594 7.09776 7.2457 7.14264 7.25742 7.18543C7.39141 7.71441 7.52773 8.24254 7.66016 8.77194C7.71328 8.9842 7.6832 9.04502 7.50469 9.13186C7.33945 9.2124 7.17461 9.29756 7 9.38523C7.03125 9.41543 7.04883 9.43347 7.06836 9.45067L8.31602 10.5392C8.71875 10.8908 9.11992 11.2419 9.52305 11.5922C9.66406 11.7142 9.71055 11.8627 9.65234 12.0481C9.61953 12.1572 9.59023 12.2663 9.55977 12.3758C9.52305 12.5045 9.48711 12.6342 9.44648 12.7814C9.84609 12.7206 10.2234 12.664 10.6035 12.6073C11.0492 12.5415 11.4945 12.4739 11.9414 12.4135C12.0945 12.3921 12.2082 12.5176 12.202 12.6807C12.1684 13.5461 12.0906 14.5231 12.0852 15.3428H12.5031C12.4977 14.5231 12.4203 13.5466 12.3867 12.6807C12.3797 12.5176 12.4938 12.3921 12.6469 12.4135C13.0938 12.4739 13.5391 12.5415 13.9848 12.6073C14.3648 12.664 14.7422 12.721 15.1418 12.7814C15.1012 12.6342 15.0652 12.5045 15.0285 12.3758C14.998 12.2659 14.9688 12.1572 14.9359 12.0481C14.8777 11.8627 14.9242 11.7142 15.0652 11.5922C15.4688 11.2419 15.8695 10.8908 16.2723 10.5392C16.6887 10.1765 17.1046 9.81367 17.5199 9.45067C17.5395 9.43347 17.557 9.41543 17.5883 9.38523C17.4133 9.29714 17.2492 9.2124 17.0836 9.13186Z" fill="#EC1C24"/>
</svg>
