<svg width="14" height="9" viewBox="0 0 14 9" fill="none" xmlns="http://www.w3.org/2000/svg">
<g clip-path="url(#clip0_7658_6311)">
<path d="M5.10229 0.951172H8.88394V7.94029H5.10229V0.951172Z" fill="#FF5F00"/>
<path d="M5.34237 4.44538C5.34237 3.02535 5.99063 1.7658 6.98704 0.950794C6.25477 0.358088 5.33039 0 4.32195 0C1.93282 0 0 1.98804 0 4.44538C0 6.90266 1.93282 8.89076 4.3219 8.89076C5.33034 8.89076 6.25472 8.53267 6.98704 7.93991C5.99063 7.13728 5.34237 5.86541 5.34237 4.44538Z" fill="#EB001B"/>
<path d="M13.9861 4.44538C13.9861 6.90266 12.0532 8.89076 9.66416 8.89076C8.65573 8.89076 7.73134 8.53267 6.99902 7.93991C8.00746 7.12496 8.64375 5.86541 8.64375 4.44538C8.64375 3.02535 7.99543 1.7658 6.99902 0.950794C7.73129 0.358088 8.65573 0 9.66416 0C12.0532 0 13.9861 2.00042 13.9861 4.44538Z" fill="#F79E1B"/>
</g>
<defs>
<clipPath id="clip0_7658_6311">
<rect width="14" height="9" fill="white"/>
</clipPath>
</defs>
</svg>
