<svg width="8" height="10" viewBox="0 0 8 10" fill="none" xmlns="http://www.w3.org/2000/svg">
<g clip-path="url(#clip0_7658_6317)">
<path d="M6.78638 0.778701C6.35095 0.252807 5.56382 0.0273438 4.55685 0.0273438H1.63435C1.53472 0.0273477 1.43836 0.0650106 1.36259 0.133561C1.28683 0.202112 1.23662 0.297054 1.22101 0.401317L0.00413437 8.57903C-0.0200531 8.74029 0.0977906 8.88632 0.252041 8.88632H2.05629L2.50942 5.84092L2.49535 5.93628C2.52763 5.72102 2.70138 5.56224 2.90713 5.56224H3.76451C5.44882 5.56224 6.76767 4.83734 7.15292 2.74036C7.16435 2.67834 7.17426 2.61797 7.18282 2.559C7.1342 2.53171 7.1342 2.53171 7.18282 2.559C7.29754 1.78393 7.18204 1.25635 6.78638 0.778701Z" fill="#27346A"/>
<path d="M3.19979 2.27979C3.24912 2.25491 3.30307 2.24201 3.3577 2.24205H5.64888C5.9202 2.24205 6.17326 2.26075 6.40451 2.30019C6.46922 2.31112 6.53359 2.32418 6.59754 2.33933C6.68818 2.36052 6.77777 2.38646 6.86598 2.41705C6.97967 2.45728 7.08554 2.50413 7.18285 2.559C7.29754 1.78364 7.18204 1.25635 6.78638 0.778701C6.3507 0.252807 5.56382 0.0273438 4.55685 0.0273438H1.6341C1.42832 0.0273438 1.25326 0.186085 1.22101 0.401317L0.00413454 8.57873C-0.020053 8.74026 0.0977908 8.88609 0.251791 8.88609H2.05629L2.99638 2.5692C3.00563 2.50711 3.02897 2.44833 3.0644 2.39791C3.09984 2.3475 3.1463 2.30697 3.19979 2.27979Z" fill="#27346A"/>
<path d="M7.15295 2.73995C6.7677 4.83664 5.44888 5.56184 3.76454 5.56184H2.90692C2.70117 5.56184 2.52738 5.72061 2.49542 5.93588L1.9317 9.72247C1.91063 9.86359 2.01363 9.99147 2.14838 9.99147H3.66932C3.75645 9.99145 3.8407 9.95849 3.90694 9.89852C3.97318 9.83855 4.01705 9.7555 4.03066 9.66432L4.04548 9.5822L4.33213 7.65717L4.3506 7.55078C4.36422 7.4596 4.40808 7.37656 4.47431 7.31659C4.54055 7.25662 4.6248 7.22366 4.71191 7.22363H4.93954C6.41288 7.22363 7.56654 6.58939 7.90367 4.75508C8.04438 3.98853 7.97157 3.34853 7.59932 2.89899C7.48641 2.76283 7.3462 2.65038 7.18285 2.55859C7.17401 2.61787 7.16442 2.67793 7.15295 2.73995Z" fill="#2790C3"/>
<path d="M6.77964 2.38787C6.71957 2.36928 6.65893 2.35283 6.59782 2.33853C6.53384 2.32362 6.46947 2.31066 6.40479 2.29966C6.17329 2.25995 5.92042 2.24121 5.64886 2.24121H3.35795C3.30328 2.24108 3.24929 2.25409 3.20004 2.27926C3.14649 2.30635 3.09998 2.34686 3.06453 2.39729C3.02908 2.44771 3.00577 2.50654 2.99661 2.56866L2.50967 5.84012L2.49561 5.93548C2.52764 5.72022 2.70139 5.56144 2.90717 5.56144H3.76479C5.44911 5.56144 6.76792 4.83654 7.15317 2.73956C7.16464 2.67754 7.17426 2.61744 7.18311 2.5582C7.08554 2.50363 6.97995 2.45648 6.86623 2.41651C6.83754 2.40643 6.80868 2.39688 6.77967 2.38787" fill="#1F264F"/>
</g>
<defs>
<clipPath id="clip0_7658_6317">
<rect width="8" height="10" fill="white"/>
</clipPath>
</defs>
</svg>
