<svg width="16" height="13" viewBox="0 0 16 13" fill="none" xmlns="http://www.w3.org/2000/svg">
<path d="M13.7926 4.41376L14.6666 8.58642H13.6653C13.6253 8.41176 13.5939 8.22909 13.5539 8.05442C13.5139 7.87976 13.5539 7.96709 13.4506 7.96709H12.2353C12.2222 7.96482 12.2087 7.96531 12.1959 7.96854C12.183 7.97176 12.1709 7.97764 12.1604 7.9858C12.1499 7.99396 12.1413 8.00422 12.135 8.01592C12.1287 8.02762 12.1249 8.04051 12.1239 8.05376C12.0679 8.21376 12.0126 8.37242 11.9493 8.52309C11.8853 8.67376 11.8933 8.59442 11.8693 8.59442H10.7973V8.49909C11.3266 7.24376 11.8566 5.98576 12.3859 4.72509C12.4172 4.63952 12.4732 4.56515 12.5468 4.51139C12.6203 4.45764 12.7082 4.42691 12.7993 4.42309C13.1486 4.40709 13.4666 4.41509 13.7926 4.41509M13.0459 5.58376L12.4813 7.10176H13.3713L13.0459 5.58376ZM4.07459 7.25109V7.15576C4.39259 6.27376 4.71792 5.39176 5.02792 4.50976C5.02792 4.43842 5.09192 4.40642 5.17125 4.40642H6.22792V4.50976L4.58325 8.48309C4.57544 8.51603 4.55556 8.54485 4.52755 8.56385C4.49953 8.58286 4.46541 8.59067 4.43192 8.58576H3.51059C3.43058 8.58576 3.39925 8.58576 3.37525 8.48242C3.08192 7.33842 2.77925 6.19442 2.48525 5.04242C2.47829 5.01291 2.46558 4.98506 2.44785 4.96047C2.43012 4.93588 2.40772 4.91502 2.38192 4.89909C2.07511 4.72837 1.75021 4.59242 1.41325 4.49376C1.41325 4.49376 1.35725 4.45376 1.33325 4.43842C1.36722 4.43032 1.40262 4.43032 1.43659 4.43842H3.02592C3.0923 4.42833 3.16007 4.43237 3.22478 4.45029C3.28949 4.4682 3.34969 4.49959 3.40142 4.54239C3.45316 4.58519 3.49527 4.63844 3.525 4.69864C3.55472 4.75885 3.57139 4.82466 3.57392 4.89176L4.02725 7.21909C4.02462 7.23766 4.02462 7.25652 4.02725 7.27509L4.07459 7.25109ZM7.77725 8.42709L7.93658 7.49709L8.04792 7.56109C8.45357 7.77124 8.91908 7.83573 9.36658 7.74376C9.45214 7.73643 9.53328 7.70265 9.59875 7.64709C9.66422 7.59154 9.71076 7.51697 9.73192 7.43376C9.74002 7.35077 9.72127 7.26738 9.67843 7.19585C9.63558 7.12432 9.57091 7.06844 9.49392 7.03642C9.33459 6.93309 9.16058 6.85376 9.00925 6.75042C8.81351 6.64083 8.63212 6.50736 8.46925 6.35309C8.30435 6.15582 8.21401 5.90687 8.21401 5.64976C8.21401 5.39264 8.30435 5.1437 8.46925 4.94642C8.70841 4.68493 9.02132 4.50221 9.36658 4.42242C9.89255 4.29114 10.4456 4.31875 10.9559 4.50176H10.9959L10.8446 5.35976C10.6441 5.29806 10.4396 5.25039 10.2326 5.21709C10.0262 5.20121 9.81895 5.20121 9.61258 5.21709C9.53806 5.23189 9.46935 5.26776 9.41458 5.32042C9.38805 5.34289 9.36672 5.37087 9.35209 5.40242C9.33747 5.43396 9.32989 5.46832 9.32989 5.50309C9.32989 5.53786 9.33747 5.57222 9.35209 5.60376C9.36672 5.63531 9.38805 5.66329 9.41458 5.68576C9.50945 5.77312 9.61312 5.85043 9.72392 5.91642C9.93058 6.04309 10.1453 6.14642 10.3439 6.28176C10.5083 6.38223 10.6446 6.52259 10.7401 6.68981C10.8357 6.85703 10.8875 7.0457 10.8907 7.23829C10.8939 7.43088 10.8484 7.62116 10.7584 7.79146C10.6684 7.96176 10.5368 8.10656 10.3759 8.21242C10.0591 8.45773 9.67841 8.60677 9.27925 8.64176C8.76849 8.69815 8.25177 8.6243 7.77725 8.42709ZM6.01325 8.58576L6.69659 4.41442H7.78525L7.10192 8.58576H6.01325Z" fill="#1B2E86"/>
</svg>
