<svg width="25" height="25" viewBox="0 0 25 25" fill="none" xmlns="http://www.w3.org/2000/svg">
<g id="Lock">
<path id="Vector" d="M19.8267 17.0762C18.9905 18.5223 17.7887 19.7232 16.342 20.5584C14.8953 21.3936 13.2544 21.8338 11.5839 21.8348C6.36265 21.8348 2.06665 17.5388 2.06665 12.3175C2.06665 7.09629 6.36348 2.80029 11.5839 2.80029C16.8043 2.80029 21.1011 7.09629 21.1011 12.3175" stroke="#3D475C" stroke-width="1.8" stroke-miterlimit="10"/>
<path id="Vector_2" d="M11.9115 7.31787C12.4602 7.31787 12.9865 7.53585 13.3745 7.92386C13.7625 8.31186 13.9805 8.83811 13.9805 9.38684V12.2834H9.84253V9.38684C9.84253 8.83811 10.0605 8.31186 10.4485 7.92386C10.8365 7.53585 11.3628 7.31787 11.9115 7.31787Z" stroke="#3D475C" stroke-width="1.5" stroke-miterlimit="10"/>
<path id="Vector_3" d="M15.3672 16.8906H8.36714C8.14765 16.8906 7.93715 16.8034 7.78195 16.6482C7.62674 16.493 7.53955 16.2825 7.53955 16.063V13.1103C7.53955 12.6713 7.71393 12.2503 8.02434 11.9399C8.33474 11.6295 8.75574 11.4551 9.19472 11.4551H14.5396C14.9786 11.4551 15.3996 11.6295 15.71 11.9399C16.0204 12.2503 16.1948 12.6713 16.1948 13.1103V16.063C16.1948 16.2825 16.1076 16.493 15.9524 16.6482C15.7972 16.8034 15.5867 16.8906 15.3672 16.8906Z" fill="#3D475C"/>
<path id="Vector_4" d="M22.6982 11.9043C22.7536 11.9045 22.8079 11.9193 22.8557 11.9472C22.9035 11.9751 22.9431 12.0152 22.9705 12.0633C22.9978 12.1114 23.012 12.1659 23.0116 12.2212C23.0112 12.2766 22.9961 12.3308 22.968 12.3785L21.3716 15.0607C21.3437 15.1073 21.3042 15.1459 21.2569 15.1727C21.2096 15.1995 21.1562 15.2136 21.1018 15.2136C21.0475 15.2136 20.9941 15.1995 20.9468 15.1727C20.8995 15.1459 20.86 15.1073 20.832 15.0607L19.2356 12.3785C19.2073 12.3309 19.192 12.2767 19.1914 12.2213C19.1908 12.1659 19.2049 12.1114 19.2322 12.0632C19.2596 12.015 19.2992 11.975 19.347 11.947C19.3948 11.9191 19.4492 11.9044 19.5046 11.9043H22.6982Z" fill="#3D475C"/>
</g>
</svg>
