<?xml version="1.0" encoding="UTF-8"?>
<svg id="Layer_2" xmlns="http://www.w3.org/2000/svg" viewBox="0 0 200.21 62.41">
  <defs>
    <style>
      .cls-1 {
        fill: #00a651;
      }

      .cls-2, .cls-3 {
        fill: #231f20;
      }

      .cls-3 {
        font-family: HelveticaNeue-Medium, 'Helvetica Neue';
        font-size: 7.74px;
        font-weight: 500;
        letter-spacing: .03em;
      }
    </style>
  </defs>
  <g id="Layer_1-2" data-name="Layer_1">
    <g>
      <path class="cls-2" d="M53.31,35.63c-4.44,5.7-12.67,5.72-17.5,3.02-3.5-1.96-5.12-5.16-5.82-8.93-.17-.89-.27-1.81-.27-2.71-.02-6.02-.01-12.03-.01-18.14h3.26c.02.32.05.66.05,1,0,5.43-.03,10.86.02,16.29.01,1.33.18,2.69.49,3.99,1.02,4.21,4.17,6.74,8.51,6.97,6.76.36,11.23-3.74,11.31-10.52.07-5.86.01-11.72.01-17.69h3.25c.04.19.13.45.13.7-.02,9.99.03,19.97-.1,29.96-.09,6.63-4.81,11.46-11.4,12.08-4.18.39-8.17-.06-11.65-2.63-2.65-1.95-3.92-4.67-4.09-8.01h3.1c1.93,6.2,6.67,8.71,13.58,7.25,5.41-1.15,7.91-5.49,7.14-12.61Z"/>
      <path class="cls-2" d="M126.75,36.05c-6.21,5.54-17.2,6.99-25.48.32-8.23-6.63-10.09-18.8-4.15-27.49C103.07.17,114.62-2.56,123.61,2.61c9.63,5.54,12,16.96,9.23,24.11-.04,0-.08.02-.12,0-1.99-.81-2.51-2.04-2.23-4.33,1.34-11.02-7.6-20.04-18.64-19.04-8.07.72-14.61,7.82-14.93,16.35-.25,6.77,2.65,12.01,8.4,15.46,5.65,3.4,11.51,3.33,17.25.03.83-.48,1.44-.54,2.23.02.53.38,1.21.53,1.95.84Z"/>
      <path class="cls-1" d="M117.71,32.39c-3.47,1.19-6.97.81-10.37-1.23-4.33-2.6-6.52-6.55-6.33-11.65.24-6.43,5.17-11.77,11.25-12.32,7.91-.71,14.39,5.4,14.13,13.15.94.82,1.66,1.89,2.12,3.06,1.32-5.38-.73-12.94-7.39-16.77-6.77-3.9-15.47-1.84-19.96,4.72-4.48,6.55-3.08,15.72,3.13,20.71,5.2,4.18,11.8,4.12,16.56,1.58-1.2-.15-2.26-.6-3.14-1.27Z"/>
      <path class="cls-2" d="M0,30.06h3.27c.03.38.05.73.08,1.07.27,2.53,1.47,4.41,3.93,5.31,3.74,1.36,7.51,1.51,11.23-.06,1.71-.72,2.99-1.95,3.4-3.85.53-2.4-.51-4.15-3.14-4.89-2.97-.83-5.99-1.46-8.99-2.18-1.27-.31-2.55-.57-3.79-.96-2.97-.92-5.18-2.61-5.53-5.94-.39-3.68,1.16-6.71,4.27-8.32,3.25-1.69,6.73-1.89,10.3-1.51,3.02.33,5.7,1.33,7.73,3.68,1.44,1.66,1.98,3.63,1.98,5.86h-3.12c-.05-.06-.14-.12-.14-.18-.28-3.94-2.72-5.36-5.73-5.95-2.83-.56-5.67-.62-8.42.48-1.81.72-3.22,1.86-3.6,3.92-.39,2.09.32,3.71,2.33,4.36,2.7.87,5.49,1.47,8.25,2.16,1.65.42,3.32.74,4.96,1.2,2.97.85,5.45,2.33,5.94,5.72.55,3.77-.93,6.69-4.13,8.66-3.21,1.97-6.79,2.25-10.44,1.9-2.51-.24-4.92-.8-6.98-2.38C1.03,36.16-.03,33.44,0,30.06Z"/>
      <path class="cls-2" d="M199.72,18.31c-.35.03-.58.08-.81.08-.75,0-1.65.21-2.21-.13-.43-.26-.43-1.23-.62-1.89-.46-1.59-1.49-2.74-2.97-3.37-3.74-1.58-7.54-1.74-11.31-.12-2.27.97-3.38,2.87-3.15,5.07.19,1.79,1.32,2.78,2.9,3.23,2.51.71,5.06,1.27,7.59,1.9,1.88.47,3.79.84,5.62,1.48,2.95,1.02,5.17,2.86,5.42,6.23.25,3.36-1.26,5.93-4,7.73-3.31,2.18-7.06,2.41-10.87,2.05-2.69-.25-5.21-1-7.31-2.81-2.3-1.98-3.1-4.58-3.09-7.61h3.18c.06.12.12.19.12.26.14,4.75,3.12,6.26,6.91,6.89,2.61.43,5.23.33,7.73-.63,1.99-.76,3.49-2,3.92-4.24.38-2.01-.32-3.66-2.33-4.39-2.14-.78-4.4-1.27-6.62-1.83-2.3-.59-4.64-1.01-6.92-1.69-2.87-.85-5.05-2.5-5.45-5.74-.42-3.3.61-6.04,3.39-7.96,3.26-2.25,6.96-2.43,10.73-2.09,2.65.24,5.11,1.05,7.16,2.85,2.01,1.76,2.85,4.03,2.97,6.75Z"/>
      <path class="cls-2" d="M88.97,40.16h-3.15c-.03-.62-.09-1.21-.09-1.79,0-5.51.06-11.02-.01-16.52-.11-8.36-8.61-13.06-15.87-8.78-3.19,1.88-4.55,4.85-4.56,8.47-.01,5.63.03,11.25.05,16.88,0,.55,0,1.1,0,1.72h-3.31c-.03-.39-.08-.74-.08-1.09,0-5.9-.04-11.81.04-17.71.1-6.72,4.01-11.52,10.5-12.59,5.16-.85,9.98-.02,13.65,4.21,1.81,2.08,2.75,4.6,2.81,7.29.14,6.46.09,12.92.12,19.38,0,.15-.05.3-.09.55Z"/>
      <path class="cls-1" d="M131.59,35.6c0-.18-.07-.56.03-.88.27-.85-.03-1.32-.74-1.82-1.82-1.27-3.58-2.64-5.34-4-.48-.37-.83-.42-1.4-.14-1.88.93-3.93.34-4.99-1.34-1.02-1.62-.65-3.85.83-5.08,1.16-.96,2.92-1.1,4.25-.32,1.45.85,2.24,2.48,1.85,4.18-.14.62,0,.89.46,1.23,1.95,1.46,3.88,2.94,5.79,4.44.4.32.68.35,1.15.08,1.68-.95,3.69-.54,4.9.91,1.13,1.36,1.13,3.34.01,4.77-1.14,1.46-3.05,1.91-4.71,1.08-1.21-.6-1.88-1.59-2.09-3.1ZM121.95,22.79c-1.35.2-2.34,1.51-2.17,2.88.18,1.46,1.52,2.5,2.95,2.29,1.39-.21,2.35-1.54,2.16-2.97-.19-1.39-1.55-2.4-2.94-2.2ZM135.75,37.84c1.42-.2,2.39-1.52,2.19-2.95-.19-1.37-1.51-2.37-2.88-2.19-1.44.2-2.42,1.48-2.21,2.92.21,1.48,1.45,2.43,2.9,2.22Z"/>
      <path class="cls-2" d="M171.01,22.28c-1.49-11.42-14.84-17.75-24.6-11.63-5.39,3.38-7.82,8.41-7.84,14.7,0,1.93-.01,3.85-.02,5.78,1.59.7,2.7,2.29,2.7,4.14s-1.12,3.45-2.72,4.15c-.01,3.83-.02,7.66-.03,11.49,0,.3.06.6.1.93h3.37v-17.17c.39.44.59.66.79.89,3.89,4.4,8.86,6.1,14.54,5.24,9.12-1.37,14.92-9.36,13.72-18.52ZM154.99,37.81c-7.31.01-13.02-5.68-13.05-13.01-.03-7.28,5.64-13.2,12.72-13.27,7.38-.07,13.23,5.7,13.27,13.09.03,7.28-5.75,13.17-12.93,13.18Z"/>
    </g>
    <text class="cls-3" transform="translate(24.62 60.19)"><tspan x="0" y="0">Customized solutions. Optimized operations.</tspan></text>
  </g>
</svg>