<svg width="25" height="25" viewBox="0 0 25 25" fill="none" xmlns="http://www.w3.org/2000/svg">
<g clip-path="url(#clip0_6896_1503)">
<path d="M21.4807 22.284H3.29321L3.01196 21.8902C1.53071 19.884 0.761963 17.5027 0.761963 15.009C0.761963 8.59648 5.97446 3.36523 12.387 3.36523C18.7995 3.36523 24.0307 8.57773 24.0307 15.009C24.0307 17.5027 23.2432 19.884 21.7807 21.8902L21.4807 22.284ZM4.28696 20.3527H20.487C21.537 18.759 22.0807 16.9215 22.0807 15.009C22.0807 9.66524 17.7307 5.29648 12.3682 5.29648C7.02446 5.29648 2.67446 9.64648 2.67446 15.009C2.69321 16.9402 3.23696 18.7777 4.28696 20.3527Z" fill="#3D475C"/>
<path d="M20.0184 13.5087L17.0746 14.1274C17.0559 13.4899 16.9059 12.8149 16.6059 12.1962C16.3246 11.5587 15.8746 10.9774 15.3121 10.4899C14.7496 10.0024 14.0934 9.60869 13.3434 9.36494C12.5934 9.13994 11.7684 9.04619 10.9621 9.12119C9.31211 9.27119 7.64336 10.1524 6.51836 11.6149C5.95586 12.3462 5.52461 13.1899 5.28086 14.1274C5.20586 14.3524 5.18711 14.5962 5.13086 14.8399C5.07461 15.0837 5.05586 15.3274 5.05586 15.5712C5.03711 16.0587 5.05586 16.5649 5.13086 17.0712L4.84961 17.1462C4.68086 16.4899 4.56836 15.8149 4.56836 15.1024C4.58711 10.7712 8.07461 7.28369 12.3871 7.28369C16.1559 7.28369 19.3059 9.96494 20.0184 13.5087Z" fill="#3D475C"/>
</g>
<defs>
<clipPath id="clip0_6896_1503">
<rect width="24" height="24" fill="white" transform="translate(0.682617 0.777832)"/>
</clipPath>
</defs>
</svg>
