<svg width="56" height="57" viewBox="0 0 56 57" fill="none" xmlns="http://www.w3.org/2000/svg">
<rect x="1" y="1.5" width="54" height="54" rx="27" fill="#E0FFE9"/>
<rect x="1" y="1.5" width="54" height="54" rx="27" stroke="#64D878" stroke-width="2"/>
<g clip-path="url(#clip0_6859_1596)">
<path d="M28 14.5C20.268 14.5 14 20.768 14 28.5C14 36.232 20.268 42.5 28 42.5C35.732 42.5 42 36.232 42 28.5C42 20.768 35.732 14.5 28 14.5ZM29.6406 39.0939V36.7031H26.3594V39.0939C21.7533 38.3864 18.1136 34.7467 17.4061 30.1406H19.7969V26.8594H17.4061C18.1958 21.7184 22.6381 17.7812 28 17.7812C33.3619 17.7812 37.8042 21.7184 38.5939 26.8594H36.2031V30.1406H38.5939C37.8864 34.7467 34.2467 38.3864 29.6406 39.0939Z" fill="#64D878"/>
<path d="M28 28.7734C28.453 28.7734 28.8203 28.4062 28.8203 27.9531C28.8203 27.5001 28.453 27.1328 28 27.1328C27.547 27.1328 27.1797 27.5001 27.1797 27.9531C27.1797 28.4062 27.547 28.7734 28 28.7734Z" fill="#64D878"/>
<path d="M28 23.0312C26.9367 23.0312 25.9037 23.3857 25.0643 24.0385L21.4375 26.8594V30.1406C24.158 30.1406 26.3594 32.342 26.3594 35.0625H29.6406C29.6406 32.342 31.842 30.1406 34.5625 30.1406V26.8594L30.9357 24.0385C30.0963 23.3857 29.0633 23.0312 28 23.0312ZM28 30.4141C26.643 30.4141 25.5391 29.3101 25.5391 27.9531C25.5391 26.5962 26.643 25.4922 28 25.4922C29.357 25.4922 30.4609 26.5962 30.4609 27.9531C30.4609 29.3101 29.357 30.4141 28 30.4141Z" fill="#64D878"/>
</g>
<defs>
<clipPath id="clip0_6859_1596">
<rect width="28" height="28" fill="white" transform="translate(14 14.5)"/>
</clipPath>
</defs>
</svg>
