<svg width="56" height="57" viewBox="0 0 56 57" fill="none" xmlns="http://www.w3.org/2000/svg">
<g id="030-placeholder 1">
<rect x="1" y="1.5" width="54" height="54" rx="27" fill="#FFF3E0"/>
<rect x="1" y="1.5" width="54" height="54" rx="27" stroke="#F7E8D2" stroke-width="2"/>
<g id="Group">
<path id="Vector" d="M14.6665 38.7085V41.0522C14.6665 41.4837 15.0163 41.8335 15.4478 41.8335H40.5519C40.9834 41.8335 41.3332 41.4837 41.3332 41.0522V38.7085H14.6665Z" fill="#F8B951"/>
<g id="Group_2">
<path id="Vector_2" d="M28.781 24.9284V26.5467C30.3093 26.2352 31.5159 25.0286 31.8274 23.5002H30.2091C29.9734 24.165 29.4458 24.6926 28.781 24.9284Z" fill="#F8B951"/>
<path id="Vector_3" d="M27.9998 23.4996C28.4312 23.4996 28.781 23.1499 28.781 22.7184C28.781 22.2869 28.4312 21.9371 27.9998 21.9371C27.5683 21.9371 27.2185 22.2869 27.2185 22.7184C27.2185 23.1499 27.5683 23.4996 27.9998 23.4996Z" fill="#F8B951"/>
<path id="Vector_4" d="M25.7905 23.5002H24.1722C24.4837 25.0286 25.6903 26.2351 27.2186 26.5467V24.9284C26.5539 24.6926 26.0263 24.165 25.7905 23.5002Z" fill="#F8B951"/>
<path id="Vector_5" d="M27.9999 18.8121C26.1134 18.8121 24.5352 20.1563 24.1722 21.9371H25.7905C26.113 21.0278 26.9814 20.3746 27.9999 20.3746C29.0184 20.3746 29.8868 21.0278 30.2093 21.9371H31.8276C31.4646 20.1563 29.8864 18.8121 27.9999 18.8121Z" fill="#F8B951"/>
<path id="Vector_6" d="M27.9998 15.1667C23.829 15.1667 20.4478 18.5479 20.4478 22.7188C20.4478 26.7935 25.7675 31.9164 27.4774 33.4578C27.7742 33.7253 28.2255 33.7253 28.5223 33.4578C30.2321 31.9164 35.5519 26.7935 35.5519 22.7188C35.5519 18.5479 32.1707 15.1667 27.9998 15.1667ZM27.9998 28.1876C24.9844 28.1876 22.5311 25.7343 22.5311 22.7188C22.5311 19.7034 24.9844 17.2501 27.9998 17.2501C31.0153 17.2501 33.4686 19.7034 33.4686 22.7188C33.4686 25.7343 31.0153 28.1876 27.9998 28.1876Z" fill="#F8B951"/>
</g>
<path id="Vector_7" d="M29.5685 34.6184C29.1374 35.007 28.5803 35.221 27.9998 35.221C27.4194 35.221 26.8623 35.007 26.4312 34.6185C25.5549 33.8285 23.9106 32.2655 22.3871 30.3751H14.6665V32.9793H17.2186C17.65 32.9793 17.9998 33.3291 17.9998 33.7605C17.9998 34.192 17.65 34.5418 17.2186 34.5418H14.6665V37.146H41.3332V34.5418H38.7811C38.3496 34.5418 37.9998 34.192 37.9998 33.7605C37.9998 33.3291 38.3496 32.9793 38.7811 32.9793H41.3332V30.3751H33.6125C32.0891 32.2655 30.4448 33.8284 29.5685 34.6184ZM23.6248 34.5418H21.1248C20.6934 34.5418 20.3436 34.192 20.3436 33.7605C20.3436 33.3291 20.6934 32.9793 21.1248 32.9793H23.6248C24.0563 32.9793 24.4061 33.3291 24.4061 33.7605C24.4061 34.192 24.0563 34.5418 23.6248 34.5418ZM32.3748 32.9793H34.8748C35.3063 32.9793 35.6561 33.3291 35.6561 33.7605C35.6561 34.192 35.3063 34.5418 34.8748 34.5418H32.3748C31.9434 34.5418 31.5936 34.192 31.5936 33.7605C31.5936 33.3291 31.9434 32.9793 32.3748 32.9793Z" fill="#F8B951"/>
<path id="Vector_8" d="M41.3333 28.8126V26.4689C41.3333 26.0374 40.9835 25.6876 40.552 25.6876H36.4911C36.1018 26.6764 35.5305 27.7198 34.7802 28.8126H41.3333Z" fill="#F8B951"/>
<path id="Vector_9" d="M15.4478 25.6876C15.0163 25.6876 14.6665 26.0374 14.6665 26.4689V28.8126H21.2196C20.4693 27.7198 19.898 26.6764 19.5087 25.6876H15.4478Z" fill="#F8B951"/>
</g>
</g>
</svg>
