<svg width="56" height="57" viewBox="0 0 56 57" fill="none" xmlns="http://www.w3.org/2000/svg">
<rect x="1" y="1.5" width="54" height="54" rx="27" fill="#FFEBE9"/>
<rect x="1" y="1.5" width="54" height="54" rx="27" stroke="#F1D1D1" stroke-width="2"/>
<g clip-path="url(#clip0_6859_1607)">
<path d="M19.5703 35.8047H25.7148V42H19.5703V35.8047Z" fill="#E17D7F"/>
<path d="M27.2383 35.8047H28.7617V42H27.2383V35.8047Z" fill="#E17D7F"/>
<path d="M15 36.5664V41.2383C15 41.659 15.341 42 15.7617 42H18.0469V35.8047H15.7617C15.341 35.8047 15 36.1457 15 36.5664Z" fill="#E17D7F"/>
<path d="M40.2383 35.8047H37.9531V42H40.2383C40.659 42 41 41.659 41 41.2383V36.5664C41 36.1457 40.659 35.8047 40.2383 35.8047Z" fill="#E17D7F"/>
<path d="M30.2852 35.8047H36.4297V42H30.2852V35.8047Z" fill="#E17D7F"/>
<path d="M23.0488 34.2812C23.4695 34.2812 23.8105 33.9402 23.8105 33.5195V32.7578H20.002V33.5195C20.002 33.9402 20.343 34.2812 20.7637 34.2812H23.0488Z" fill="#E17D7F"/>
<path d="M35.2363 34.2812C35.657 34.2812 35.998 33.9402 35.998 33.5195V32.7578H32.1895V33.5195C32.1895 33.9402 32.5305 34.2812 32.9512 34.2812H35.2363Z" fill="#E17D7F"/>
<path d="M31.0469 20.0625C30.0668 20.0625 29.2695 20.8598 29.2695 21.8398H32.8242C32.8242 20.8598 32.0269 20.0625 31.0469 20.0625Z" fill="#E17D7F"/>
<path d="M38.4102 27.1719H17.5898V28.9492C17.5898 30.2093 18.615 31.2344 19.875 31.2344H36.125C37.385 31.2344 38.4102 30.2093 38.4102 28.9492V27.1719Z" fill="#E17D7F"/>
<path d="M37.0899 24.2773L35.8711 23.3633H34.3889L33.6272 25.6484H38.154C37.9294 25.1109 37.5647 24.6335 37.0899 24.2773Z" fill="#E17D7F"/>
<path d="M23.9788 25.6484H32.0213L32.783 23.3633H23.217L23.9788 25.6484Z" fill="#E17D7F"/>
<path d="M21.6111 23.3633H20.1288L18.9101 24.2773C18.4352 24.6335 18.0706 25.1109 17.8459 25.6484H22.3728L21.6111 23.3633Z" fill="#E17D7F"/>
<path d="M19.3056 21.8398H27.7461C27.7461 20.0198 29.2268 18.5391 31.0468 18.5391C32.8669 18.5391 34.3476 20.0198 34.3476 21.8398H36.6944L37.6484 20.8858C37.9459 20.5883 37.9459 20.1061 37.6484 19.8086C37.3509 19.5111 36.8687 19.5111 36.5712 19.8086L35.3521 21.0276L34.6915 18.1649C34.399 16.8977 33.2706 16 31.97 16H24.0299C22.7294 16 21.6009 16.8977 21.3085 18.165L20.6479 21.0276L19.4287 19.8086C19.1313 19.5111 18.649 19.5111 18.3515 19.8086C18.054 20.1061 18.054 20.5883 18.3515 20.8858L19.3056 21.8398Z" fill="#E17D7F"/>
</g>
<defs>
<clipPath id="clip0_6859_1607">
<rect width="26" height="26" fill="white" transform="translate(15 16)"/>
</clipPath>
</defs>
</svg>
