<svg width="56" height="57" viewBox="0 0 56 57" fill="none" xmlns="http://www.w3.org/2000/svg">
<g id="030-placeholder 1">
<rect x="1" y="1.5" width="54" height="54" rx="27" fill="#DCF1FF"/>
<rect x="1" y="1.5" width="54" height="54" rx="27" stroke="#BBDFF2" stroke-width="2"/>
<g id="Group">
<path id="Vector" d="M17.2439 39.2682C17.2439 39.8339 17.7026 40.2926 18.2683 40.2926H21.3415C21.9072 40.2926 22.3658 39.8339 22.3658 39.2682V38.2438H17.2439V39.2682Z" fill="#5FB5E5"/>
<path id="Vector_2" d="M33.6342 39.2682C33.6342 39.8339 34.0928 40.2926 34.6585 40.2926H37.7317C38.2975 40.2926 38.7561 39.8339 38.7561 39.2682V38.2438H33.6342V39.2682Z" fill="#5FB5E5"/>
<path id="Vector_3" d="M32.0975 21.1709C30.7795 21.1709 29.7073 22.2432 29.7073 23.5611H34.4878C34.4878 22.2432 33.4155 21.1709 32.0975 21.1709Z" fill="#5FB5E5"/>
<path id="Vector_4" d="M14 30.7318V33.1221C14 34.8166 15.3786 36.1952 17.0732 36.1952H38.9268C40.6214 36.1952 42 34.8166 42 33.1221V30.7318H14Z" fill="#5FB5E5"/>
<path id="Vector_5" d="M40.2244 26.8389L38.5853 25.6096H36.592L35.5676 28.6828H41.6555C41.3534 27.9598 40.863 27.3179 40.2244 26.8389Z" fill="#5FB5E5"/>
<path id="Vector_6" d="M22.592 28.6828H33.4079L34.4323 25.6096H21.5676L22.592 28.6828Z" fill="#5FB5E5"/>
<path id="Vector_7" d="M19.408 25.6096H17.4146L15.7756 26.8389C15.137 27.3178 14.6465 27.9598 14.3445 28.6828H20.4324L19.408 25.6096Z" fill="#5FB5E5"/>
<path id="Vector_8" d="M36.5366 23.5609H39.6926L40.9756 22.2779C41.3757 21.8779 41.3757 21.2293 40.9756 20.8292C40.5756 20.4292 39.927 20.4292 39.5269 20.8292L37.8874 22.4687L36.999 18.6188C36.6057 16.9145 35.0882 15.7073 33.3391 15.7073H22.661C20.9119 15.7073 19.3943 16.9145 19.0011 18.6188L18.1127 22.4687L16.4731 20.8292C16.073 20.4292 15.4245 20.4292 15.0244 20.8292C14.6244 21.2293 14.6244 21.8779 15.0244 22.2779L16.3074 23.5609H27.6586C27.6586 21.1133 29.6499 19.1219 32.0976 19.1219C34.5453 19.1219 36.5366 21.1133 36.5366 23.5609Z" fill="#5FB5E5"/>
</g>
</g>
</svg>
